<?xml version="1.0" encoding="UTF-8"?>
<svg xmlns="http://www.w3.org/2000/svg" viewBox="0 0 1100 540" font-family="Helvetica, Arial, sans-serif" font-size="13">
  <defs>
    <marker id="ar12" viewBox="0 0 10 10" refX="9" refY="5" markerWidth="7" markerHeight="7" orient="auto-start-reverse">
      <path d="M 0 0 L 10 5 L 0 10 z" fill="#2C3E50"/>
    </marker>
  </defs>

  <text x="550" y="28" text-anchor="middle" font-size="20" font-weight="700" fill="#003D6B">Figure 12-1: AI-Driven RF Awareness Infrastructure</text>
  <text x="550" y="48" text-anchor="middle" font-size="12" fill="#486581">Three-layer architecture: edge classification, aggregation analytics, orchestration response.</text>

  <!-- Layer 3: Orchestration (top) -->
  <rect x="100" y="80" width="900" height="80" fill="#1b5e20" rx="8"/>
  <text x="550" y="108" text-anchor="middle" font-size="15" font-weight="700" fill="#fff">ORCHESTRATION LAYER</text>
  <text x="550" y="130" text-anchor="middle" font-size="11" fill="#fff">Enterprise C2 systems · Spectrum policy decisions · Public utility dashboards</text>
  <text x="550" y="148" text-anchor="middle" font-size="11" fill="#fff">Counter-UAS engagement · Regulatory enforcement · Spectrum-as-a-Service billing</text>

  <!-- Vertical connectors -->
  <line x1="250" y1="160" x2="250" y2="200" stroke="#2C3E50" stroke-width="2" marker-end="url(#ar12)"/>
  <line x1="550" y1="160" x2="550" y2="200" stroke="#2C3E50" stroke-width="2" marker-end="url(#ar12)"/>
  <line x1="850" y1="160" x2="850" y2="200" stroke="#2C3E50" stroke-width="2" marker-end="url(#ar12)"/>

  <!-- Layer 2: Aggregation (middle) -->
  <rect x="100" y="200" width="900" height="100" fill="#0078B6" rx="8"/>
  <text x="550" y="228" text-anchor="middle" font-size="15" font-weight="700" fill="#fff">AGGREGATION LAYER</text>
  <text x="550" y="252" text-anchor="middle" font-size="11" fill="#fff">Central servers · Deep ML models · Cross-sensor data fusion</text>
  <text x="550" y="270" text-anchor="middle" font-size="11" fill="#fff">SigMF archive · Predictive analytics · Pattern recognition · Triage</text>
  <text x="550" y="288" text-anchor="middle" font-size="11" fill="#fff" font-style="italic">RTSA Suite PRO + AI plugins · TensorFlow / PyTorch backends</text>

  <!-- Vertical connectors -->
  <line x1="180" y1="300" x2="180" y2="350" stroke="#2C3E50" stroke-width="2" marker-end="url(#ar12)"/>
  <line x1="320" y1="300" x2="320" y2="350" stroke="#2C3E50" stroke-width="2" marker-end="url(#ar12)"/>
  <line x1="460" y1="300" x2="460" y2="350" stroke="#2C3E50" stroke-width="2" marker-end="url(#ar12)"/>
  <line x1="600" y1="300" x2="600" y2="350" stroke="#2C3E50" stroke-width="2" marker-end="url(#ar12)"/>
  <line x1="740" y1="300" x2="740" y2="350" stroke="#2C3E50" stroke-width="2" marker-end="url(#ar12)"/>
  <line x1="880" y1="300" x2="880" y2="350" stroke="#2C3E50" stroke-width="2" marker-end="url(#ar12)"/>

  <!-- Layer 1: Edge sensors (bottom) -->
  <rect x="100" y="350" width="900" height="120" fill="#003D6B" rx="8"/>
  <text x="550" y="378" text-anchor="middle" font-size="15" font-weight="700" fill="#fff">EDGE LAYER (RTSA Sensor Grid)</text>

  <!-- Six SPECTRAN units across the edge -->
  <g transform="translate(150,400)">
    <rect x="0" y="0" width="60" height="35" fill="#fff" stroke="#2C3E50" rx="3"/>
    <text x="30" y="22" text-anchor="middle" font-size="10" font-weight="700" fill="#2C3E50">SPECTRAN</text>
    <text x="30" y="55" text-anchor="middle" font-size="9" fill="#fff">Smart City</text>
  </g>
  <g transform="translate(290,400)">
    <rect x="0" y="0" width="60" height="35" fill="#fff" stroke="#2C3E50" rx="3"/>
    <text x="30" y="22" text-anchor="middle" font-size="10" font-weight="700" fill="#2C3E50">SPECTRAN</text>
    <text x="30" y="55" text-anchor="middle" font-size="9" fill="#fff">AV Corridor</text>
  </g>
  <g transform="translate(430,400)">
    <rect x="0" y="0" width="60" height="35" fill="#fff" stroke="#2C3E50" rx="3"/>
    <text x="30" y="22" text-anchor="middle" font-size="10" font-weight="700" fill="#2C3E50">SPECTRAN</text>
    <text x="30" y="55" text-anchor="middle" font-size="9" fill="#fff">Hospital</text>
  </g>
  <g transform="translate(570,400)">
    <rect x="0" y="0" width="60" height="35" fill="#fff" stroke="#2C3E50" rx="3"/>
    <text x="30" y="22" text-anchor="middle" font-size="10" font-weight="700" fill="#2C3E50">SPECTRAN</text>
    <text x="30" y="55" text-anchor="middle" font-size="9" fill="#fff">Airport</text>
  </g>
  <g transform="translate(710,400)">
    <rect x="0" y="0" width="60" height="35" fill="#fff" stroke="#2C3E50" rx="3"/>
    <text x="30" y="22" text-anchor="middle" font-size="10" font-weight="700" fill="#2C3E50">SPECTRAN</text>
    <text x="30" y="55" text-anchor="middle" font-size="9" fill="#fff">Stadium</text>
  </g>
  <g transform="translate(850,400)">
    <rect x="0" y="0" width="60" height="35" fill="#fff" stroke="#2C3E50" rx="3"/>
    <text x="30" y="22" text-anchor="middle" font-size="10" font-weight="700" fill="#2C3E50">SPECTRAN</text>
    <text x="30" y="55" text-anchor="middle" font-size="9" fill="#fff">Power Plant</text>
  </g>

  <!-- Annotations -->
  <text x="50" y="125" text-anchor="end" font-size="11" fill="#1b5e20" font-weight="600">Decisions</text>
  <text x="50" y="250" text-anchor="end" font-size="11" fill="#0078B6" font-weight="600">Analytics</text>
  <text x="50" y="395" text-anchor="end" font-size="11" fill="#003D6B" font-weight="600">Sensing</text>

  <!-- Bottom: emerging trends -->
  <g transform="translate(100,490)">
    <text x="0" y="0" font-size="11" fill="#486581" font-weight="600">Emerging trends:</text>
    <text x="120" y="0" font-size="11" fill="#2C3E50">Smart cities · Public utility spectrum · Spectrum-as-a-Service · 6G research · GNSS resilience · AI classification</text>
  </g>
</svg>
