<?xml version="1.0" encoding="UTF-8"?>
<svg xmlns="http://www.w3.org/2000/svg" viewBox="0 0 1200 600" font-family="Helvetica, Arial, sans-serif" font-size="13">
  <text x="600" y="28" text-anchor="middle" font-size="20" font-weight="700" fill="#003D6B">Aaronia Equipment Stack: From Antenna to Operations Console</text>
  <text x="600" y="48" text-anchor="middle" font-size="12" fill="#486581">A typical EW or counter-UAS rack: IsoLOG antenna feeding cascaded SPECTRAN units feeding RTSA Suite PRO.</text>

  <!-- IsoLOG antenna at top -->
  <g transform="translate(150,100)">
    <ellipse cx="100" cy="40" rx="80" ry="50" fill="url(#radomeGrad5)" stroke="#2C3E50" stroke-width="2"/>
    <defs>
      <radialGradient id="radomeGrad5">
        <stop offset="0%" stop-color="#bcccdc"/>
        <stop offset="100%" stop-color="#486581"/>
      </radialGradient>
    </defs>
    <text x="100" y="38" text-anchor="middle" font-size="13" font-weight="700" fill="#fff">IsoLOG 3D DF</text>
    <text x="100" y="55" text-anchor="middle" font-size="10" fill="#fff">16 sectors / 32 antennas</text>
    <line x1="100" y1="90" x2="100" y2="160" stroke="#003D6B" stroke-width="6"/>
    <rect x="80" y="160" width="40" height="30" fill="#003D6B"/>
    <text x="100" y="180" text-anchor="middle" font-size="9" fill="#fff">mast</text>
    <text x="100" y="215" text-anchor="middle" font-size="11" font-weight="700" fill="#2C3E50">400 MHz - 40 GHz</text>
    <text x="100" y="230" text-anchor="middle" font-size="11" font-weight="700" fill="#2C3E50">Ethernet + power</text>
  </g>

  <!-- Connections -->
  <line x1="350" y1="160" x2="450" y2="160" stroke="#2C3E50" stroke-width="3"/>
  <text x="400" y="150" text-anchor="middle" font-size="10" fill="#486581" font-style="italic">RF + Ethernet</text>

  <!-- 19" rack with cascaded SPECTRANs -->
  <g transform="translate(450,100)">
    <rect x="0" y="0" width="350" height="380" fill="#1a1a1a" stroke="#2C3E50" stroke-width="3" rx="6"/>
    <text x="175" y="22" text-anchor="middle" font-size="12" font-weight="700" fill="#fff">19" Rack</text>

    <!-- Slot 1: SPECTRAN A -->
    <rect x="15" y="40" width="320" height="55" fill="#1b5e20" stroke="#7fb77e"/>
    <rect x="290" y="55" width="35" height="25" fill="#7fb77e"/>
    <text x="155" y="58" text-anchor="middle" font-size="11" font-weight="700" fill="#fff">SPECTRAN V6 PLUS 2000XA-6 (A)</text>
    <text x="155" y="74" text-anchor="middle" font-size="10" fill="#bcccdc">490 MHz RTBW @ 0.5-3 GHz center</text>
    <circle cx="30" cy="68" r="3" fill="#7fb77e"/>
    <circle cx="42" cy="68" r="3" fill="#7fb77e"/>
    <circle cx="54" cy="68" r="3" fill="#0078B6"/>

    <!-- Slot 2: SPECTRAN B -->
    <rect x="15" y="105" width="320" height="55" fill="#1b5e20" stroke="#7fb77e"/>
    <rect x="290" y="120" width="35" height="25" fill="#7fb77e"/>
    <text x="155" y="123" text-anchor="middle" font-size="11" font-weight="700" fill="#fff">SPECTRAN V6 PLUS 2000XA-6 (B)</text>
    <text x="155" y="139" text-anchor="middle" font-size="10" fill="#bcccdc">490 MHz RTBW @ 3-6 GHz center</text>
    <circle cx="30" cy="133" r="3" fill="#7fb77e"/>
    <circle cx="42" cy="133" r="3" fill="#7fb77e"/>
    <circle cx="54" cy="133" r="3" fill="#0078B6"/>

    <!-- Slot 3: GPSDO -->
    <rect x="15" y="170" width="320" height="40" fill="#003D6B" stroke="#0078B6"/>
    <text x="155" y="190" text-anchor="middle" font-size="11" font-weight="700" fill="#fff">GPSDO 10 MHz Reference</text>
    <text x="155" y="204" text-anchor="middle" font-size="9" fill="#bcccdc">Locks both SPECTRAN units for phase coherence</text>
    <circle cx="30" cy="190" r="3" fill="#7fb77e"/>

    <!-- Slot 4: NVMe Storage -->
    <rect x="15" y="220" width="320" height="40" fill="#486581" stroke="#9fb3c8"/>
    <text x="155" y="240" text-anchor="middle" font-size="11" font-weight="700" fill="#fff">NVMe RAID Array (32 TB)</text>
    <text x="155" y="254" text-anchor="middle" font-size="9" fill="#bcccdc">24/7 IQ recording at 245 MHz BW</text>

    <!-- Slot 5: Ethernet switch -->
    <rect x="15" y="270" width="320" height="40" fill="#003D6B" stroke="#0078B6"/>
    <text x="155" y="290" text-anchor="middle" font-size="11" font-weight="700" fill="#fff">10 GbE Switch + Patch Panel</text>
    <text x="155" y="304" text-anchor="middle" font-size="9" fill="#bcccdc">Network distribution</text>

    <!-- Slot 6: UPS -->
    <rect x="15" y="320" width="320" height="40" fill="#2C3E50" stroke="#486581"/>
    <text x="155" y="340" text-anchor="middle" font-size="11" font-weight="700" fill="#fff">UPS / Power Distribution</text>
    <text x="155" y="354" text-anchor="middle" font-size="9" fill="#bcccdc">Battery backup, line conditioning</text>
  </g>

  <!-- Workstation -->
  <line x1="800" y1="280" x2="900" y2="280" stroke="#2C3E50" stroke-width="3"/>
  <text x="850" y="270" text-anchor="middle" font-size="10" fill="#486581" font-style="italic">10 GbE</text>

  <g transform="translate(900,200)">
    <!-- Monitor -->
    <rect x="0" y="0" width="240" height="160" fill="#2C3E50" stroke="#003D6B" stroke-width="2" rx="6"/>
    <rect x="10" y="10" width="220" height="140" fill="#003D6B"/>
    <!-- mock display -->
    <rect x="20" y="20" width="100" height="60" fill="#7fb77e" opacity="0.4"/>
    <rect x="125" y="20" width="100" height="60" fill="#0078B6" opacity="0.4"/>
    <rect x="20" y="85" width="205" height="55" fill="#003D6B" opacity="0.4"/>
    <text x="120" y="170" text-anchor="middle" font-size="11" font-weight="700" fill="#2C3E50">Operator Console</text>
    <!-- Monitor stand -->
    <polygon points="100,170 140,170 130,190 110,190" fill="#486581"/>
    <rect x="80" y="190" width="80" height="6" fill="#486581"/>
    <text x="120" y="220" text-anchor="middle" font-size="11" font-weight="700" fill="#003D6B">RTSA Suite PRO</text>
    <text x="120" y="237" text-anchor="middle" font-size="10" fill="#486581">Windows / Linux / macOS</text>
  </g>

  <!-- Output flows -->
  <g transform="translate(900,420)">
    <text x="120" y="0" text-anchor="middle" font-size="13" font-weight="700" fill="#003D6B">External integrations</text>
    <rect x="0" y="15" width="240" height="35" fill="#0078B6" rx="3"/>
    <text x="120" y="38" text-anchor="middle" font-size="11" fill="#fff">MQTT to C2 dashboard</text>
    <rect x="0" y="58" width="240" height="35" fill="#1b5e20" rx="3"/>
    <text x="120" y="81" text-anchor="middle" font-size="11" fill="#fff">KML / KMZ to GIS</text>
    <rect x="0" y="101" width="240" height="35" fill="#003D6B" rx="3"/>
    <text x="120" y="124" text-anchor="middle" font-size="11" fill="#fff">REST API to enterprise</text>
    <rect x="0" y="144" width="240" height="35" fill="#c0392b" rx="3"/>
    <text x="120" y="167" text-anchor="middle" font-size="11" fill="#fff">SMS / email alerts</text>
  </g>

  <!-- Dollar tag -->
  <g transform="translate(60,490)">
    <rect x="0" y="0" width="320" height="80" fill="#ECEFF1" stroke="#0078B6" stroke-width="2" rx="6"/>
    <text x="160" y="25" text-anchor="middle" font-size="13" font-weight="700" fill="#003D6B">Typical full-deployment cost</text>
    <text x="160" y="50" text-anchor="middle" font-size="14" font-weight="700" fill="#2C3E50">$80K - $250K USD</text>
    <text x="160" y="68" text-anchor="middle" font-size="10" fill="#486581">depending on RTBW, antenna sizing, storage</text>
  </g>
  <g transform="translate(420,490)">
    <rect x="0" y="0" width="320" height="80" fill="#e8f5e9" stroke="#1b5e20" stroke-width="2" rx="6"/>
    <text x="160" y="25" text-anchor="middle" font-size="13" font-weight="700" fill="#1b5e20">vs equivalent T&amp;M-vendor system</text>
    <text x="160" y="50" text-anchor="middle" font-size="14" font-weight="700" fill="#2C3E50">$300K - $1M+ USD</text>
    <text x="160" y="68" text-anchor="middle" font-size="10" fill="#486581">for similar capability from larger vendors</text>
  </g>
</svg>
