<svg xmlns="http://www.w3.org/2000/svg" viewBox="0 0 900 520" font-family="Arial, Helvetica, sans-serif">
<defs>
<path id="cosw" d="M0,-90 L24.4,-88.3 L48.8,-83.1 L73.1,-74.8 L97.5,-63.6 L121.9,-50 L146.2,-34.4 L170.6,-17.6 L195,-0 L219.4,17.6 L243.8,34.4 L268.1,50 L292.5,63.6 L316.9,74.8 L341.2,83.1 L365.6,88.3 L390,90 L414.4,88.3 L438.8,83.1 L463.1,74.8 L487.5,63.6 L511.9,50 L536.2,34.4 L560.6,17.6 L585,0 L609.4,-17.6 L633.8,-34.4 L658.1,-50 L682.5,-63.6 L706.9,-74.8 L731.2,-83.1 L755.6,-88.3 L780,-90 L804.4,-88.3 L828.8,-83.1 L853.1,-74.8 L877.5,-63.6 L901.9,-50 L926.2,-34.4 L950.6,-17.6 L975,0 L999.4,17.6 L1023.8,34.4 L1048.1,50 L1072.5,63.6 L1096.9,74.8 L1121.2,83.1 L1145.6,88.3 L1170,90 L1194.4,88.3 L1218.8,83.1 L1243.1,74.8 L1267.5,63.6 L1291.9,50 L1316.2,34.4 L1340.6,17.6 L1365,0 L1389.4,-17.6 L1413.8,-34.4 L1438.1,-50 L1462.5,-63.6 L1486.9,-74.8 L1511.2,-83.1 L1535.6,-88.3 L1560,-90 L1584.4,-88.3 L1608.8,-83.1 L1633.1,-74.8 L1657.5,-63.6 L1681.9,-50 L1706.2,-34.4 L1730.6,-17.6 L1755,-0 L1779.4,17.6 L1803.8,34.4 L1828.1,50 L1852.5,63.6 L1876.9,74.8 L1901.2,83.1 L1925.6,88.3 L1950,90 L1974.4,88.3 L1998.8,83.1 L2023.1,74.8 L2047.5,63.6 L2071.9,50 L2096.2,34.4 L2120.6,17.6 L2145,-0 L2169.4,-17.6 L2193.8,-34.4 L2218.1,-50 L2242.5,-63.6 L2266.9,-74.8 L2291.2,-83.1 L2315.6,-88.3 L2340,-90 L2364.4,-88.3 L2388.8,-83.1 L2413.1,-74.8 L2437.5,-63.6 L2461.9,-50 L2486.2,-34.4 L2510.6,-17.6 L2535,-0 L2559.4,17.6 L2583.8,34.4 L2608.1,50 L2632.5,63.6 L2656.9,74.8 L2681.2,83.1 L2705.6,88.3 L2730,90 L2754.4,88.3 L2778.8,83.1 L2803.1,74.8 L2827.5,63.6 L2851.9,50 L2876.2,34.4 L2900.6,17.6 L2925,-0 L2949.4,-17.6 L2973.8,-34.4 L2998.1,-50 L3022.5,-63.6 L3046.9,-74.8 L3071.2,-83.1 L3095.6,-88.3 L3120,-90 L3144.4,-88.3 L3168.8,-83.1 L3193.1,-74.8 L3217.5,-63.6 L3241.9,-50 L3266.2,-34.4 L3290.6,-17.6 L3315,0 L3339.4,17.6 L3363.8,34.4 L3388.1,50 L3412.5,63.6 L3436.9,74.8 L3461.2,83.1 L3485.6,88.3 L3510,90 L3534.4,88.3 L3558.8,83.1 L3583.1,74.8 L3607.5,63.6 L3631.9,50 L3656.2,34.4 L3680.6,17.6 L3705,0 L3729.4,-17.6 L3753.8,-34.4 L3778.1,-50 L3802.5,-63.6 L3826.9,-74.8 L3851.2,-83.1 L3875.6,-88.3 L3900,-90 L3924.4,-88.3 L3948.8,-83.1 L3973.1,-74.8 L3997.5,-63.6 L4021.9,-50 L4046.2,-34.4 L4070.6,-17.6 L4095,0 L4119.4,17.6 L4143.8,34.4 L4168.1,50 L4192.5,63.6 L4216.9,74.8 L4241.2,83.1 L4265.6,88.3 L4290,90 L4314.4,88.3 L4338.8,83.1 L4363.1,74.8 L4387.5,63.6 L4411.9,50 L4436.2,34.4 L4460.6,17.6 L4485,0 L4509.4,-17.6 L4533.8,-34.4 L4558.1,-50 L4582.5,-63.6 L4606.9,-74.8 L4631.2,-83.1 L4655.6,-88.3 L4680,-90 L4704.4,-88.3 L4728.8,-83.1 L4753.1,-74.8 L4777.5,-63.6 L4801.9,-50 L4826.2,-34.4 L4850.6,-17.6 L4875,0 L4899.4,17.6 L4923.8,34.4 L4948.1,50 L4972.5,63.6 L4996.9,74.8 L5021.2,83.1 L5045.6,88.3 L5070,90 L5094.4,88.3 L5118.8,83.1 L5143.1,74.8 L5167.5,63.6 L5191.9,50 L5216.2,34.4 L5240.6,17.6 L5265,0 L5289.4,-17.6 L5313.8,-34.4 L5338.1,-50 L5362.5,-63.6 L5386.9,-74.8 L5411.2,-83.1 L5435.6,-88.3 L5460,-90 L5484.4,-88.3 L5508.8,-83.1 L5533.1,-74.8 L5557.5,-63.6 L5581.9,-50 L5606.2,-34.4 L5630.6,-17.6 L5655,0 L5679.4,17.6 L5703.8,34.4 L5728.1,50 L5752.5,63.6 L5776.9,74.8 L5801.2,83.1 L5825.6,88.3 L5850,90 L5874.4,88.3 L5898.8,83.1 L5923.1,74.8 L5947.5,63.6 L5971.9,50 L5996.2,34.4 L6020.6,17.6 L6045,0 L6069.4,-17.6 L6093.8,-34.4 L6118.1,-50 L6142.5,-63.6 L6166.9,-74.8 L6191.2,-83.1 L6215.6,-88.3 L6240,-90" fill="none" stroke-width="2.5" vector-effect="non-scaling-stroke"/>
<clipPath id="win"><rect x="60" y="60" width="780" height="250"/></clipPath>
<marker id="ah" viewBox="0 0 10 10" refX="8" refY="5" markerWidth="7" markerHeight="7" orient="auto"><path d="M0,0 L10,5 L0,10 z" fill="#5a6472"/></marker>
</defs>
<rect width="900" height="520" fill="#ffffff"/>
<text x="450" y="30" text-anchor="middle" font-size="22" font-weight="bold" fill="#113163">Sweeping past Nyquist: where the alias comes from</text>

<!-- time-domain panel (static furniture) -->
<rect x="60" y="60" width="780" height="250" fill="#f5f7fa" stroke="#d8dde4"/>
<line x1="60" y1="95" x2="60" y2="275" stroke="#d8dde4" stroke-width="1" stroke-dasharray="3,4"/><line x1="138" y1="95" x2="138" y2="275" stroke="#d8dde4" stroke-width="1" stroke-dasharray="3,4"/><line x1="216" y1="95" x2="216" y2="275" stroke="#d8dde4" stroke-width="1" stroke-dasharray="3,4"/><line x1="294" y1="95" x2="294" y2="275" stroke="#d8dde4" stroke-width="1" stroke-dasharray="3,4"/><line x1="372" y1="95" x2="372" y2="275" stroke="#d8dde4" stroke-width="1" stroke-dasharray="3,4"/><line x1="450" y1="95" x2="450" y2="275" stroke="#d8dde4" stroke-width="1" stroke-dasharray="3,4"/><line x1="528" y1="95" x2="528" y2="275" stroke="#d8dde4" stroke-width="1" stroke-dasharray="3,4"/><line x1="606" y1="95" x2="606" y2="275" stroke="#d8dde4" stroke-width="1" stroke-dasharray="3,4"/><line x1="684" y1="95" x2="684" y2="275" stroke="#d8dde4" stroke-width="1" stroke-dasharray="3,4"/><line x1="762" y1="95" x2="762" y2="275" stroke="#d8dde4" stroke-width="1" stroke-dasharray="3,4"/><line x1="840" y1="95" x2="840" y2="275" stroke="#d8dde4" stroke-width="1" stroke-dasharray="3,4"/>
<line x1="60" y1="185" x2="840" y2="185" stroke="#d8dde4" stroke-width="1"/>

<!-- frequency panel (static furniture) -->
<rect x="100" y="360" width="350" height="70" fill="#eaf6fd"/>
<rect x="450" y="360" width="350" height="70" fill="#fdf3e7"/>
<line x1="100" y1="430" x2="830" y2="430" stroke="#5a6472" stroke-width="2" marker-end="url(#ah)"/>
<line x1="450" y1="352" x2="450" y2="438" stroke="#5a6472" stroke-width="1.5" stroke-dasharray="5,4"/>
<line x1="800" y1="424" x2="800" y2="438" stroke="#5a6472" stroke-width="1.5"/>
<text x="100" y="456" text-anchor="middle" font-size="15" fill="#5a6472">0</text>
<text x="450" y="456" text-anchor="middle" font-size="15" font-weight="bold" fill="#113163">Fs/2 (Nyquist)</text>
<text x="800" y="456" text-anchor="middle" font-size="15" fill="#5a6472">Fs</text>
<text x="275" y="378" text-anchor="middle" font-size="14" fill="#0655a3">First Nyquist zone</text>
<text x="625" y="378" text-anchor="middle" font-size="14" fill="#c77e00">Second zone</text>

<!-- legend (above the time panel) -->
<line x1="150" y1="48" x2="186" y2="48" stroke="#0655a3" stroke-width="2.5"/>
<text x="192" y="53" font-size="14" fill="#5a6472">signal you asked for</text>
<line x1="380" y1="48" x2="416" y2="48" stroke="#c0392b" stroke-width="2.5" stroke-dasharray="7,5"/>
<text x="422" y="53" font-size="14" fill="#5a6472">alias</text>
<circle cx="530" cy="48" r="5" fill="#113163"/>
<text x="540" y="53" font-size="14" fill="#5a6472">samples (fixed grid)</text>

<!-- animated content (fades at the loop wrap) -->
<g>
<animate attributeName="opacity" dur="9s" repeatCount="indefinite" values="0;1;1;0" keyTimes="0;0.03;0.97;1"/>

<g clip-path="url(#win)">
  <g transform="translate(60,185)">
    <g><use href="#cosw" stroke="#0655a3">
      <animate attributeName="stroke-opacity" dur="9s" repeatCount="indefinite" values="1;1;0.35;0.35" keyTimes="0;0.5046;0.5496;1"/></use>
      <animateTransform attributeName="transform" type="scale" dur="9s" repeatCount="indefinite" calcMode="linear" values="1.0000 1;0.6667 1;0.5000 1;0.4000 1;0.3333 1;0.2857 1;0.2500 1;0.2222 1;0.2000 1;0.1818 1;0.1667 1;0.1538 1;0.1429 1;0.1333 1;0.1333 1" keyTimes="0;0.0631;0.1262;0.1892;0.2523;0.3154;0.3785;0.4415;0.5046;0.5677;0.6308;0.6938;0.7569;0.8200;1"/>
    </g>
  </g>
  <g opacity="0">
    <animate attributeName="opacity" dur="9s" repeatCount="indefinite" values="0;0;1;1" keyTimes="0;0.5046;0.5496;1"/>
    <g transform="translate(60,185)">
      <g><use href="#cosw" stroke="#c0392b" stroke-dasharray="7,5"/>
      <animateTransform attributeName="transform" type="scale" dur="9s" repeatCount="indefinite" calcMode="linear" values="0.2000 1;0.2000 1;0.2000 1;0.2000 1;0.2000 1;0.2000 1;0.2000 1;0.2000 1;0.2000 1;0.2222 1;0.2500 1;0.2857 1;0.3333 1;0.4000 1;0.4000 1" keyTimes="0;0.0631;0.1262;0.1892;0.2523;0.3154;0.3785;0.4415;0.5046;0.5677;0.6308;0.6938;0.7569;0.8200;1"/>
      </g>
    </g>
  </g>
  <circle cx="60" cy="185" r="5" fill="#113163"><animate attributeName="cy" dur="9s" repeatCount="indefinite" calcMode="linear" values="95.0;95.0;95.0;95.0;95.0;95.0;95.0;95.0;95.0;95.0;95.0;95.0;95.0;95.0;95.0;95.0;95.0;95.0;95.0;95.0;95.0;95.0;95.0;95.0;95.0;95.0;95.0;95.0" keyTimes="0;0.0315;0.0631;0.0946;0.1262;0.1577;0.1892;0.2208;0.2523;0.2838;0.3154;0.3469;0.3785;0.4100;0.4415;0.4731;0.5046;0.5362;0.5677;0.5992;0.6308;0.6623;0.6938;0.7254;0.7569;0.7885;0.8200;1"/></circle><circle cx="138" cy="185" r="5" fill="#113163"><animate attributeName="cy" dur="9s" repeatCount="indefinite" calcMode="linear" values="112.2;121.4;132.1;144.1;157.2;170.9;185.0;199.1;212.8;225.9;237.9;248.6;257.8;265.2;270.6;273.9;275.0;273.9;270.6;265.2;257.8;248.6;237.9;225.9;212.8;199.1;185.0;185.0" keyTimes="0;0.0315;0.0631;0.0946;0.1262;0.1577;0.1892;0.2208;0.2523;0.2838;0.3154;0.3469;0.3785;0.4100;0.4415;0.4731;0.5046;0.5362;0.5677;0.5992;0.6308;0.6623;0.6938;0.7254;0.7569;0.7885;0.8200;1"/></circle><circle cx="216" cy="185" r="5" fill="#113163"><animate attributeName="cy" dur="9s" repeatCount="indefinite" calcMode="linear" values="157.2;185.0;212.8;237.9;257.8;270.6;275.0;270.6;257.8;237.9;212.8;185.0;157.2;132.1;112.2;99.4;95.0;99.4;112.2;132.1;157.2;185.0;212.8;237.9;257.8;270.6;275.0;275.0" keyTimes="0;0.0315;0.0631;0.0946;0.1262;0.1577;0.1892;0.2208;0.2523;0.2838;0.3154;0.3469;0.3785;0.4100;0.4415;0.4731;0.5046;0.5362;0.5677;0.5992;0.6308;0.6623;0.6938;0.7254;0.7569;0.7885;0.8200;1"/></circle><circle cx="294" cy="185" r="5" fill="#113163"><animate attributeName="cy" dur="9s" repeatCount="indefinite" calcMode="linear" values="212.8;248.6;270.6;273.9;257.8;225.9;185.0;144.1;112.2;96.1;99.4;121.4;157.2;199.1;237.9;265.2;275.0;265.2;237.9;199.1;157.2;121.4;99.4;96.1;112.2;144.1;185.0;185.0" keyTimes="0;0.0315;0.0631;0.0946;0.1262;0.1577;0.1892;0.2208;0.2523;0.2838;0.3154;0.3469;0.3785;0.4100;0.4415;0.4731;0.5046;0.5362;0.5677;0.5992;0.6308;0.6623;0.6938;0.7254;0.7569;0.7885;0.8200;1"/></circle><circle cx="372" cy="185" r="5" fill="#113163"><animate attributeName="cy" dur="9s" repeatCount="indefinite" calcMode="linear" values="257.8;275.0;257.8;212.8;157.2;112.2;95.0;112.2;157.2;212.8;257.8;275.0;257.8;212.8;157.2;112.2;95.0;112.2;157.2;212.8;257.8;275.0;257.8;212.8;157.2;112.2;95.0;95.0" keyTimes="0;0.0315;0.0631;0.0946;0.1262;0.1577;0.1892;0.2208;0.2523;0.2838;0.3154;0.3469;0.3785;0.4100;0.4415;0.4731;0.5046;0.5362;0.5677;0.5992;0.6308;0.6623;0.6938;0.7254;0.7569;0.7885;0.8200;1"/></circle><circle cx="450" cy="185" r="5" fill="#113163"><animate attributeName="cy" dur="9s" repeatCount="indefinite" calcMode="linear" values="275.0;248.6;185.0;121.4;95.0;121.4;185.0;248.6;275.0;248.6;185.0;121.4;95.0;121.4;185.0;248.6;275.0;248.6;185.0;121.4;95.0;121.4;185.0;248.6;275.0;248.6;185.0;185.0" keyTimes="0;0.0315;0.0631;0.0946;0.1262;0.1577;0.1892;0.2208;0.2523;0.2838;0.3154;0.3469;0.3785;0.4100;0.4415;0.4731;0.5046;0.5362;0.5677;0.5992;0.6308;0.6623;0.6938;0.7254;0.7569;0.7885;0.8200;1"/></circle><circle cx="528" cy="185" r="5" fill="#113163"><animate attributeName="cy" dur="9s" repeatCount="indefinite" calcMode="linear" values="257.8;185.0;112.2;99.4;157.2;237.9;275.0;237.9;157.2;99.4;112.2;185.0;257.8;270.6;212.8;132.1;95.0;132.1;212.8;270.6;257.8;185.0;112.2;99.4;157.2;237.9;275.0;275.0" keyTimes="0;0.0315;0.0631;0.0946;0.1262;0.1577;0.1892;0.2208;0.2523;0.2838;0.3154;0.3469;0.3785;0.4100;0.4415;0.4731;0.5046;0.5362;0.5677;0.5992;0.6308;0.6623;0.6938;0.7254;0.7569;0.7885;0.8200;1"/></circle><circle cx="606" cy="185" r="5" fill="#113163"><animate attributeName="cy" dur="9s" repeatCount="indefinite" calcMode="linear" values="212.8;121.4;99.4;170.9;257.8;265.2;185.0;104.8;112.2;199.1;270.6;248.6;157.2;96.1;132.1;225.9;275.0;225.9;132.1;96.1;157.2;248.6;270.6;199.1;112.2;104.8;185.0;185.0" keyTimes="0;0.0315;0.0631;0.0946;0.1262;0.1577;0.1892;0.2208;0.2523;0.2838;0.3154;0.3469;0.3785;0.4100;0.4415;0.4731;0.5046;0.5362;0.5677;0.5992;0.6308;0.6623;0.6938;0.7254;0.7569;0.7885;0.8200;1"/></circle><circle cx="684" cy="185" r="5" fill="#113163"><animate attributeName="cy" dur="9s" repeatCount="indefinite" calcMode="linear" values="157.2;95.0;157.2;257.8;257.8;157.2;95.0;157.2;257.8;257.8;157.2;95.0;157.2;257.8;257.8;157.2;95.0;157.2;257.8;257.8;157.2;95.0;157.2;257.8;257.8;157.2;95.0;95.0" keyTimes="0;0.0315;0.0631;0.0946;0.1262;0.1577;0.1892;0.2208;0.2523;0.2838;0.3154;0.3469;0.3785;0.4100;0.4415;0.4731;0.5046;0.5362;0.5677;0.5992;0.6308;0.6623;0.6938;0.7254;0.7569;0.7885;0.8200;1"/></circle><circle cx="762" cy="185" r="5" fill="#113163"><animate attributeName="cy" dur="9s" repeatCount="indefinite" calcMode="linear" values="112.2;121.4;237.9;265.2;157.2;96.1;185.0;273.9;212.8;104.8;132.1;248.6;257.8;144.1;99.4;199.1;275.0;199.1;99.4;144.1;257.8;248.6;132.1;104.8;212.8;273.9;185.0;185.0" keyTimes="0;0.0315;0.0631;0.0946;0.1262;0.1577;0.1892;0.2208;0.2523;0.2838;0.3154;0.3469;0.3785;0.4100;0.4415;0.4731;0.5046;0.5362;0.5677;0.5992;0.6308;0.6623;0.6938;0.7254;0.7569;0.7885;0.8200;1"/></circle><circle cx="840" cy="185" r="5" fill="#113163"><animate attributeName="cy" dur="9s" repeatCount="indefinite" calcMode="linear" values="95.0;185.0;275.0;185.0;95.0;185.0;275.0;185.0;95.0;185.0;275.0;185.0;95.0;185.0;275.0;185.0;95.0;185.0;275.0;185.0;95.0;185.0;275.0;185.0;95.0;185.0;275.0;275.0" keyTimes="0;0.0315;0.0631;0.0946;0.1262;0.1577;0.1892;0.2208;0.2523;0.2838;0.3154;0.3469;0.3785;0.4100;0.4415;0.4731;0.5046;0.5362;0.5677;0.5992;0.6308;0.6623;0.6938;0.7254;0.7569;0.7885;0.8200;1"/></circle>
</g>

<!-- status captions -->
<text x="450" y="340" text-anchor="middle" font-size="16" fill="#0655a3">
  <animate attributeName="opacity" dur="9s" repeatCount="indefinite" values="1;1;0;0" keyTimes="0;0.5046;0.5496;1"/>
  Below Fs/2: the samples pin the signal down</text>
<text x="450" y="340" text-anchor="middle" font-size="16" font-weight="bold" fill="#c0392b" opacity="0">
  <animate attributeName="opacity" dur="9s" repeatCount="indefinite" values="0;0;1;1" keyTimes="0;0.5046;0.5496;1"/>
  Past Fs/2: the same samples now trace a lower-frequency alias</text>

<!-- frequency markers -->
<g>
  <g transform="translate(100,0)">
    <g>
      <line x1="0" y1="430" x2="0" y2="392" stroke="#0655a3" stroke-width="2.5"/>
      <circle cx="0" cy="386" r="6" fill="#0655a3"/>
      <animateTransform attributeName="transform" type="translate" dur="9s" repeatCount="indefinite" calcMode="linear" values="70.0 0;105.0 0;140.0 0;175.0 0;210.0 0;245.0 0;280.0 0;315.0 0;350.0 0;385.0 0;420.0 0;455.0 0;490.0 0;525.0 0;525.0 0" keyTimes="0;0.0631;0.1262;0.1892;0.2523;0.3154;0.3785;0.4415;0.5046;0.5677;0.6308;0.6938;0.7569;0.8200;1"/>
    </g>
  </g>
  <g opacity="0">
    <animate attributeName="opacity" dur="9s" repeatCount="indefinite" values="0;0;1;1" keyTimes="0;0.5046;0.5496;1"/>
    <g transform="translate(100,0)">
      <g>
        <line x1="0" y1="430" x2="0" y2="392" stroke="#c0392b" stroke-width="2.5" stroke-dasharray="6,4"/>
        <circle cx="0" cy="386" r="6" fill="none" stroke="#c0392b" stroke-width="2.5"/>
        <animateTransform attributeName="transform" type="translate" dur="9s" repeatCount="indefinite" calcMode="linear" values="350.0 0;350.0 0;350.0 0;350.0 0;350.0 0;350.0 0;350.0 0;350.0 0;350.0 0;315.0 0;280.0 0;245.0 0;210.0 0;175.0 0;175.0 0" keyTimes="0;0.0631;0.1262;0.1892;0.2523;0.3154;0.3785;0.4415;0.5046;0.5677;0.6308;0.6938;0.7569;0.8200;1"/>
      </g>
    </g>
  </g>
</g>

<text x="450" y="500" text-anchor="middle" font-size="15" fill="#5a6472">The intended frequency sweeps up. Once it crosses Fs/2 it folds back, mirrored about Nyquist, into the first zone.</text>
</g>
</svg>
