<svg xmlns="http://www.w3.org/2000/svg" viewBox="0 0 620 310" width="620" height="310" font-family="Arial,Helvetica,sans-serif">
  <!-- Background -->
  <rect width="620" height="310" fill="#ECEFF1" rx="6"/>

  <!-- Title -->
  <text x="310" y="28" text-anchor="middle" font-size="15" font-weight="bold" fill="#003D6B">13-Bit Barker Code Phase Sequence</text>
  <text x="310" y="46" text-anchor="middle" font-size="11" fill="#0078B6">+1 +1 +1 +1 +1 −1 −1 +1 +1 −1 +1 −1 +1</text>

  <!-- Axes -->
  <!-- Y-axis -->
  <line x1="68" y1="60" x2="68" y2="250" stroke="#003D6B" stroke-width="1.5"/>
  <!-- X-axis (zero line) -->
  <line x1="68" y1="155" x2="580" y2="155" stroke="#003D6B" stroke-width="1.5"/>

  <!-- Y-axis labels -->
  <text x="58" y="97"  text-anchor="end" font-size="12" fill="#003D6B">+1</text>
  <text x="58" y="159" text-anchor="end" font-size="12" fill="#003D6B">0</text>
  <text x="58" y="221" text-anchor="end" font-size="12" fill="#003D6B">−1</text>

  <!-- Horizontal grid ticks on y-axis -->
  <line x1="64" y1="93"  x2="72" y2="93"  stroke="#003D6B" stroke-width="1.2"/>
  <line x1="64" y1="217" x2="72" y2="217" stroke="#003D6B" stroke-width="1.2"/>

  <!-- 13-bit Barker: +1 +1 +1 +1 +1 -1 -1 +1 +1 -1 +1 -1 +1 -->
  <!-- Each chip width = (580-68)/13 = ~39.4px; +1 bar top=93, -1 bar top=155 -->
  <!-- Bar height = 62px for each -->

  <!-- Chip positions (left edges): 68, 107.4, 146.8, 186.2, 225.5, 264.9, 304.3, 343.7, 383.1, 422.4, 461.8, 501.2, 540.6 -->
  <!-- chip width ~39.4 -->

  <!-- chip 1: +1 -->
  <rect x="68"    y="93"  width="39" height="62" fill="#0078B6" opacity="0.85"/>
  <!-- chip 2: +1 -->
  <rect x="107"   y="93"  width="39" height="62" fill="#0078B6" opacity="0.85"/>
  <!-- chip 3: +1 -->
  <rect x="146"   y="93"  width="39" height="62" fill="#0078B6" opacity="0.85"/>
  <!-- chip 4: +1 -->
  <rect x="185"   y="93"  width="39" height="62" fill="#0078B6" opacity="0.85"/>
  <!-- chip 5: +1 -->
  <rect x="224"   y="93"  width="39" height="62" fill="#0078B6" opacity="0.85"/>
  <!-- chip 6: -1 -->
  <rect x="263"   y="155" width="39" height="62" fill="#003D6B" opacity="0.85"/>
  <!-- chip 7: -1 -->
  <rect x="302"   y="155" width="39" height="62" fill="#003D6B" opacity="0.85"/>
  <!-- chip 8: +1 -->
  <rect x="341"   y="93"  width="39" height="62" fill="#0078B6" opacity="0.85"/>
  <!-- chip 9: +1 -->
  <rect x="380"   y="93"  width="39" height="62" fill="#0078B6" opacity="0.85"/>
  <!-- chip 10: -1 -->
  <rect x="419"   y="155" width="39" height="62" fill="#003D6B" opacity="0.85"/>
  <!-- chip 11: +1 -->
  <rect x="458"   y="93"  width="39" height="62" fill="#0078B6" opacity="0.85"/>
  <!-- chip 12: -1 -->
  <rect x="497"   y="155" width="39" height="62" fill="#003D6B" opacity="0.85"/>
  <!-- chip 13: +1 -->
  <rect x="536"   y="93"  width="39" height="62" fill="#0078B6" opacity="0.85"/>

  <!-- Chip index labels below x-axis -->
  <text x="87"  y="238" text-anchor="middle" font-size="10" fill="#003D6B">1</text>
  <text x="126" y="238" text-anchor="middle" font-size="10" fill="#003D6B">2</text>
  <text x="165" y="238" text-anchor="middle" font-size="10" fill="#003D6B">3</text>
  <text x="204" y="238" text-anchor="middle" font-size="10" fill="#003D6B">4</text>
  <text x="243" y="238" text-anchor="middle" font-size="10" fill="#003D6B">5</text>
  <text x="282" y="238" text-anchor="middle" font-size="10" fill="#003D6B">6</text>
  <text x="321" y="238" text-anchor="middle" font-size="10" fill="#003D6B">7</text>
  <text x="360" y="238" text-anchor="middle" font-size="10" fill="#003D6B">8</text>
  <text x="399" y="238" text-anchor="middle" font-size="10" fill="#003D6B">9</text>
  <text x="438" y="238" text-anchor="middle" font-size="10" fill="#003D6B">10</text>
  <text x="477" y="238" text-anchor="middle" font-size="10" fill="#003D6B">11</text>
  <text x="516" y="238" text-anchor="middle" font-size="10" fill="#003D6B">12</text>
  <text x="555" y="238" text-anchor="middle" font-size="10" fill="#003D6B">13</text>

  <!-- X-axis label -->
  <text x="324" y="260" text-anchor="middle" font-size="11" fill="#003D6B">Chip index</text>

  <!-- Legend -->
  <rect x="82"  y="276" width="14" height="14" fill="#0078B6" opacity="0.85"/>
  <text x="100" y="287" font-size="11" fill="#003D6B">+1 (0° phase)</text>
  <rect x="220" y="276" width="14" height="14" fill="#003D6B" opacity="0.85"/>
  <text x="238" y="287" font-size="11" fill="#003D6B">−1 (180° phase)</text>

  <!-- Compression ratio note -->
  <text x="440" y="284" font-size="10" fill="#0078B6">PCR = 13:1</text>
</svg>
