<svg xmlns="http://www.w3.org/2000/svg" viewBox="0 0 1440 900" preserveAspectRatio="xMidYMid slice" width="1440" height="900"><path d="M 0,90.0 L 10,92.8 L 20,95.6 L 30,98.3 L 40,100.9 L 50,103.3 L 60,105.6 L 70,107.6 L 80,109.4 L 90,111.0 L 100,112.2 L 110,113.2 L 120,113.8 L 130,114.0 L 140,113.9 L 150,113.3 L 160,112.4 L 170,111.1 L 180,109.4 L 190,107.4 L 200,105.0 L 210,102.3 L 220,99.3 L 230,96.1 L 240,92.7 L 250,89.1 L 260,85.5 L 270,82.0 L 280,78.5 L 290,75.3 L 300,72.4 L 310,69.9 L 320,68.0 L 330,66.6 L 340,66.0 L 350,66.2 L 360,67.3 L 370,69.3 L 380,72.1 L 390,75.9 L 400,80.4 L 410,85.5 L 420,91.0 L 430,96.7 L 440,102.1 L 450,107.0 L 460,110.9 L 470,113.3 L 480,114.0 L 490,112.6 L 500,109.1 L 510,103.5 L 520,96.2 L 530,87.9 L 540,79.6 L 550,72.4 L 560,67.5 L 570,66.0 L 580,68.6 L 590,75.2 L 600,85.0 L 610,96.1 L 620,106.2 L 630,112.7 L 640,113.6 L 650,108.1 L 660,97.4 L 670,84.4 L 680,72.8 L 690,66.5 L 700,67.7 L 710,76.3 L 720,89.4 L 730,102.8 L 740,111.9 L 750,113.7 L 760,108.0 L 770,96.7 L 780,83.5 L 790,72.5 L 800,66.6 L 810,67.0 L 820,73.1 L 830,83.1 L 840,94.2 L 850,104.2 L 860,111.1 L 870,113.9 L 880,112.7 L 890,108.0 L 900,100.9 L 910,92.6 L 920,84.3 L 930,76.9 L 940,71.2 L 950,67.6 L 960,66.0 L 970,66.6 L 980,69.0 L 990,72.8 L 1000,77.6 L 1010,83.0 L 1020,88.7 L 1030,94.2 L 1040,99.4 L 1050,103.9 L 1060,107.7 L 1070,110.6 L 1080,112.6 L 1090,113.7 L 1100,114.0 L 1110,113.4 L 1120,112.1 L 1130,110.1 L 1140,107.7 L 1150,104.8 L 1160,101.6 L 1170,98.1 L 1180,94.6 L 1190,91.0 L 1200,87.4 L 1210,84.0 L 1220,80.8 L 1230,77.7 L 1240,75.0 L 1250,72.6 L 1260,70.6 L 1270,68.9 L 1280,67.6 L 1290,66.7 L 1300,66.1 L 1310,66.0 L 1320,66.2 L 1330,66.8 L 1340,67.8 L 1350,69.0 L 1360,70.6 L 1370,72.4 L 1380,74.4 L 1390,76.7 L 1400,79.1 L 1410,81.7 L 1420,84.4 L 1430,87.2 L 1440,90.0" fill="none" stroke="#2f9e6b" stroke-width="1.4" stroke-linecap="round" opacity="0.9"/><circle cx="1309" cy="55.1" r="1.4" fill="#2f9e6b" opacity="0.34"/><circle cx="285" cy="83.5" r="1.3" fill="#2f9e6b" opacity="0.56"/><circle cx="178" cy="112.3" r="0.6" fill="#2f9e6b" opacity="0.28"/><circle cx="476" cy="114.1" r="0.6" fill="#2f9e6b" opacity="0.32"/><circle cx="1330" cy="72.5" r="1.1" fill="#2f9e6b" opacity="0.41"/><circle cx="569" cy="74.7" r="0.6" fill="#2f9e6b" opacity="0.53"/><circle cx="1429" cy="84.8" r="0.9" fill="#2f9e6b" opacity="0.33"/><circle cx="689" cy="55.6" r="1.0" fill="#2f9e6b" opacity="0.38"/><circle cx="704" cy="73.3" r="1.5" fill="#2f9e6b" opacity="0.51"/><circle cx="1098" cy="103.5" r="1.6" fill="#2f9e6b" opacity="0.28"/><circle cx="600" cy="94.2" r="1.3" fill="#2f9e6b" opacity="0.55"/><circle cx="1182" cy="85.2" r="0.7" fill="#2f9e6b" opacity="0.48"/><circle cx="592" cy="90.5" r="1.5" fill="#2f9e6b" opacity="0.55"/><circle cx="778" cy="79.9" r="1.3" fill="#2f9e6b" opacity="0.38"/><path d="" /><path d="M 0,210.0 L 10,214.1 L 20,218.1 L 30,222.0 L 40,225.6 L 50,229.0 L 60,232.0 L 70,234.6 L 80,236.8 L 90,238.4 L 100,239.5 L 110,240.0 L 120,239.9 L 130,239.1 L 140,237.7 L 150,235.8 L 160,233.2 L 170,230.0 L 180,226.4 L 190,222.3 L 200,217.8 L 210,213.1 L 220,208.2 L 230,203.3 L 240,198.5 L 250,193.9 L 260,189.7 L 270,186.1 L 280,183.2 L 290,181.2 L 300,180.1 L 310,180.2 L 320,181.4 L 330,183.9 L 340,187.6 L 350,192.5 L 360,198.3 L 370,204.9 L 380,212.0 L 390,219.2 L 400,226.1 L 410,232.1 L 420,236.7 L 430,239.4 L 440,239.9 L 450,237.7 L 460,232.8 L 470,225.5 L 480,216.2 L 490,205.8 L 500,195.6 L 510,187.0 L 520,181.4 L 530,180.1 L 540,184.0 L 550,192.8 L 560,205.4 L 570,219.4 L 580,231.7 L 590,239.1 L 600,238.9 L 610,230.4 L 620,215.4 L 630,198.3 L 640,184.7 L 650,180.0 L 660,186.7 L 670,202.7 L 680,222.0 L 690,236.4 L 700,239.5 L 710,229.6 L 720,210.8 L 730,191.7 L 740,180.8 L 750,182.9 L 760,196.6 L 770,215.8 L 780,232.4 L 790,239.9 L 800,236.0 L 810,223.0 L 820,205.9 L 830,190.6 L 840,181.5 L 850,180.7 L 860,187.5 L 870,199.6 L 880,213.7 L 890,226.4 L 900,235.6 L 910,239.8 L 920,238.8 L 930,233.5 L 940,225.0 L 950,214.8 L 960,204.4 L 970,195.0 L 980,187.5 L 990,182.5 L 1000,180.2 L 1010,180.5 L 1020,183.1 L 1030,187.7 L 1040,193.6 L 1050,200.4 L 1060,207.6 L 1070,214.8 L 1080,221.4 L 1090,227.3 L 1100,232.2 L 1110,236.0 L 1120,238.5 L 1130,239.8 L 1140,239.9 L 1150,238.9 L 1160,236.9 L 1170,234.0 L 1180,230.4 L 1190,226.2 L 1200,221.6 L 1210,216.8 L 1220,211.9 L 1230,207.0 L 1240,202.2 L 1250,197.8 L 1260,193.7 L 1270,190.0 L 1280,186.8 L 1290,184.3 L 1300,182.3 L 1310,180.9 L 1320,180.1 L 1330,180.0 L 1340,180.5 L 1350,181.6 L 1360,183.2 L 1370,185.4 L 1380,188.0 L 1390,191.0 L 1400,194.4 L 1410,198.0 L 1420,201.9 L 1430,205.9 L 1440,210.0" fill="none" stroke="#2f9e6b" stroke-width="1.4" stroke-linecap="round" opacity="0.9"/><circle cx="758" cy="189.1" r="1.3" fill="#2f9e6b" opacity="0.50"/><circle cx="1399" cy="198.2" r="1.3" fill="#2f9e6b" opacity="0.31"/><circle cx="501" cy="185.2" r="1.0" fill="#2f9e6b" opacity="0.60"/><circle cx="1310" cy="186.2" r="0.8" fill="#2f9e6b" opacity="0.36"/><circle cx="114" cy="232.4" r="0.6" fill="#2f9e6b" opacity="0.36"/><circle cx="548" cy="178.5" r="1.6" fill="#2f9e6b" opacity="0.45"/><circle cx="644" cy="173.5" r="1.1" fill="#2f9e6b" opacity="0.56"/><circle cx="1316" cy="179.2" r="0.9" fill="#2f9e6b" opacity="0.34"/><circle cx="1149" cy="240.1" r="1.4" fill="#2f9e6b" opacity="0.40"/><circle cx="1195" cy="221.1" r="0.8" fill="#2f9e6b" opacity="0.60"/><circle cx="1043" cy="195.4" r="1.4" fill="#2f9e6b" opacity="0.55"/><circle cx="313" cy="184.0" r="1.5" fill="#2f9e6b" opacity="0.40"/><circle cx="130" cy="235.9" r="1.3" fill="#2f9e6b" opacity="0.41"/><circle cx="514" cy="197.5" r="1.5" fill="#2f9e6b" opacity="0.25"/><path d="" /><path d="M 0,330.0 L 10,335.6 L 20,341.1 L 30,346.3 L 40,351.1 L 50,355.4 L 60,359.1 L 70,362.1 L 80,364.3 L 90,365.6 L 100,366.0 L 110,365.5 L 120,364.0 L 130,361.5 L 140,358.2 L 150,354.1 L 160,349.1 L 170,343.6 L 180,337.6 L 190,331.2 L 200,324.7 L 210,318.3 L 220,312.2 L 230,306.6 L 240,301.8 L 250,298.0 L 260,295.3 L 270,294.1 L 280,294.4 L 290,296.2 L 300,299.8 L 310,304.9 L 320,311.4 L 330,319.1 L 340,327.7 L 350,336.6 L 360,345.3 L 370,353.3 L 380,359.8 L 390,364.2 L 400,366.0 L 410,364.7 L 420,360.1 L 430,352.4 L 440,342.0 L 450,329.9 L 460,317.4 L 470,306.1 L 480,297.8 L 490,294.1 L 500,296.1 L 510,304.3 L 520,317.7 L 530,334.1 L 540,350.2 L 550,362.0 L 560,366.0 L 570,360.0 L 580,344.7 L 590,324.2 L 600,305.1 L 610,294.6 L 620,297.8 L 630,314.7 L 640,338.8 L 650,359.3 L 660,365.8 L 670,354.0 L 680,329.3 L 690,304.6 L 700,294.0 L 710,303.9 L 720,328.9 L 730,354.5 L 740,366.0 L 750,356.9 L 760,332.9 L 770,307.6 L 780,294.5 L 790,299.6 L 800,319.3 L 810,343.6 L 820,361.3 L 830,365.7 L 840,356.1 L 850,337.3 L 860,316.7 L 870,300.9 L 880,294.1 L 890,297.4 L 900,308.8 L 910,324.8 L 920,341.3 L 930,355.0 L 940,363.5 L 950,366.0 L 960,362.6 L 970,354.5 L 980,343.3 L 990,330.8 L 1000,318.6 L 1010,308.1 L 1020,300.2 L 1030,295.5 L 1040,294.0 L 1050,295.6 L 1060,300.0 L 1070,306.4 L 1080,314.3 L 1090,323.1 L 1100,332.0 L 1110,340.6 L 1120,348.4 L 1130,355.0 L 1140,360.1 L 1150,363.7 L 1160,365.6 L 1170,365.9 L 1180,364.7 L 1190,362.1 L 1200,358.3 L 1210,353.5 L 1220,347.9 L 1230,341.8 L 1240,335.4 L 1250,328.9 L 1260,322.5 L 1270,316.5 L 1280,310.9 L 1290,306.0 L 1300,301.8 L 1310,298.5 L 1320,296.0 L 1330,294.5 L 1340,294.0 L 1350,294.4 L 1360,295.7 L 1370,297.9 L 1380,300.9 L 1390,304.6 L 1400,308.9 L 1410,313.7 L 1420,318.9 L 1430,324.4 L 1440,330.0" fill="none" stroke="#2f9e6b" stroke-width="1.4" stroke-linecap="round" opacity="0.9"/><circle cx="234" cy="309.7" r="1.2" fill="#2f9e6b" opacity="0.34"/><circle cx="1312" cy="293.4" r="0.9" fill="#2f9e6b" opacity="0.31"/><circle cx="6" cy="346.1" r="1.6" fill="#2f9e6b" opacity="0.34"/><circle cx="1025" cy="304.8" r="1.2" fill="#2f9e6b" opacity="0.29"/><circle cx="1280" cy="305.3" r="1.3" fill="#2f9e6b" opacity="0.46"/><circle cx="313" cy="303.1" r="0.8" fill="#2f9e6b" opacity="0.58"/><circle cx="1086" cy="331.2" r="1.3" fill="#2f9e6b" opacity="0.42"/><circle cx="229" cy="319.2" r="1.6" fill="#2f9e6b" opacity="0.54"/><circle cx="629" cy="305.2" r="0.9" fill="#2f9e6b" opacity="0.45"/><circle cx="161" cy="337.0" r="1.1" fill="#2f9e6b" opacity="0.27"/><circle cx="1090" cy="330.5" r="0.7" fill="#2f9e6b" opacity="0.42"/><circle cx="1125" cy="342.5" r="1.2" fill="#2f9e6b" opacity="0.46"/><circle cx="433" cy="361.5" r="1.4" fill="#2f9e6b" opacity="0.49"/><circle cx="638" cy="331.1" r="1.3" fill="#2f9e6b" opacity="0.38"/><path d="" /><path d="M 0,450.0 L 10,452.8 L 20,455.6 L 30,458.3 L 40,460.9 L 50,463.3 L 60,465.6 L 70,467.6 L 80,469.4 L 90,471.0 L 100,472.2 L 110,473.2 L 120,473.8 L 130,474.0 L 140,473.9 L 150,473.3 L 160,472.4 L 170,471.1 L 180,469.4 L 190,467.4 L 200,465.0 L 210,462.3 L 220,459.3 L 230,456.1 L 240,452.7 L 250,449.1 L 260,445.5 L 270,442.0 L 280,438.5 L 290,435.3 L 300,432.4 L 310,429.9 L 320,428.0 L 330,426.6 L 340,426.0 L 350,426.2 L 360,427.3 L 370,429.3 L 380,432.1 L 390,435.9 L 400,440.4 L 410,445.5 L 420,451.0 L 430,456.7 L 440,462.1 L 450,467.0 L 460,470.9 L 470,473.3 L 480,474.0 L 490,472.6 L 500,469.1 L 510,463.5 L 520,456.2 L 530,447.9 L 540,439.6 L 550,432.4 L 560,427.5 L 570,426.0 L 580,428.6 L 590,435.2 L 600,445.0 L 610,456.1 L 620,466.2 L 630,472.7 L 640,473.6 L 650,468.1 L 660,457.4 L 670,444.4 L 680,432.8 L 690,426.5 L 700,427.7 L 710,436.3 L 720,449.4 L 730,462.8 L 740,471.9 L 750,473.7 L 760,468.0 L 770,456.7 L 780,443.5 L 790,432.5 L 800,426.6 L 810,427.0 L 820,433.1 L 830,443.1 L 840,454.2 L 850,464.2 L 860,471.1 L 870,473.9 L 880,472.7 L 890,468.0 L 900,460.9 L 910,452.6 L 920,444.3 L 930,436.9 L 940,431.2 L 950,427.6 L 960,426.0 L 970,426.6 L 980,429.0 L 990,432.8 L 1000,437.6 L 1010,443.0 L 1020,448.7 L 1030,454.2 L 1040,459.4 L 1050,463.9 L 1060,467.7 L 1070,470.6 L 1080,472.6 L 1090,473.7 L 1100,474.0 L 1110,473.4 L 1120,472.1 L 1130,470.1 L 1140,467.7 L 1150,464.8 L 1160,461.6 L 1170,458.1 L 1180,454.6 L 1190,451.0 L 1200,447.4 L 1210,444.0 L 1220,440.8 L 1230,437.7 L 1240,435.0 L 1250,432.6 L 1260,430.6 L 1270,428.9 L 1280,427.6 L 1290,426.7 L 1300,426.1 L 1310,426.0 L 1320,426.2 L 1330,426.8 L 1340,427.8 L 1350,429.0 L 1360,430.6 L 1370,432.4 L 1380,434.4 L 1390,436.7 L 1400,439.1 L 1410,441.7 L 1420,444.4 L 1430,447.2 L 1440,450.0" fill="none" stroke="#2f9e6b" stroke-width="1.4" stroke-linecap="round" opacity="0.9"/><circle cx="1059" cy="466.0" r="0.9" fill="#2f9e6b" opacity="0.27"/><circle cx="43" cy="464.1" r="0.9" fill="#2f9e6b" opacity="0.33"/><circle cx="145" cy="479.5" r="0.7" fill="#2f9e6b" opacity="0.27"/><circle cx="64" cy="476.5" r="0.7" fill="#2f9e6b" opacity="0.33"/><circle cx="1370" cy="432.0" r="1.2" fill="#2f9e6b" opacity="0.50"/><circle cx="1169" cy="460.6" r="0.9" fill="#2f9e6b" opacity="0.42"/><circle cx="833" cy="437.7" r="0.7" fill="#2f9e6b" opacity="0.40"/><circle cx="867" cy="471.0" r="1.6" fill="#2f9e6b" opacity="0.27"/><circle cx="1338" cy="441.1" r="0.7" fill="#2f9e6b" opacity="0.39"/><circle cx="694" cy="434.4" r="0.7" fill="#2f9e6b" opacity="0.32"/><circle cx="1098" cy="472.6" r="1.1" fill="#2f9e6b" opacity="0.35"/><circle cx="511" cy="473.3" r="0.7" fill="#2f9e6b" opacity="0.53"/><circle cx="1127" cy="459.5" r="1.3" fill="#2f9e6b" opacity="0.44"/><circle cx="30" cy="471.4" r="1.6" fill="#2f9e6b" opacity="0.55"/><path d="" /><path d="M 0,570.0 L 10,574.1 L 20,578.1 L 30,582.0 L 40,585.6 L 50,589.0 L 60,592.0 L 70,594.6 L 80,596.8 L 90,598.4 L 100,599.5 L 110,600.0 L 120,599.9 L 130,599.1 L 140,597.7 L 150,595.8 L 160,593.2 L 170,590.0 L 180,586.4 L 190,582.3 L 200,577.8 L 210,573.1 L 220,568.2 L 230,563.3 L 240,558.5 L 250,553.9 L 260,549.7 L 270,546.1 L 280,543.2 L 290,541.2 L 300,540.1 L 310,540.2 L 320,541.4 L 330,543.9 L 340,547.6 L 350,552.5 L 360,558.3 L 370,564.9 L 380,572.0 L 390,579.2 L 400,586.1 L 410,592.1 L 420,596.7 L 430,599.4 L 440,599.9 L 450,597.7 L 460,592.8 L 470,585.5 L 480,576.2 L 490,565.8 L 500,555.6 L 510,547.0 L 520,541.4 L 530,540.1 L 540,544.0 L 550,552.8 L 560,565.4 L 570,579.4 L 580,591.7 L 590,599.1 L 600,598.9 L 610,590.4 L 620,575.4 L 630,558.3 L 640,544.7 L 650,540.0 L 660,546.7 L 670,562.7 L 680,582.0 L 690,596.4 L 700,599.5 L 710,589.6 L 720,570.8 L 730,551.7 L 740,540.8 L 750,542.9 L 760,556.6 L 770,575.8 L 780,592.4 L 790,599.9 L 800,596.0 L 810,583.0 L 820,565.9 L 830,550.6 L 840,541.5 L 850,540.7 L 860,547.5 L 870,559.6 L 880,573.7 L 890,586.4 L 900,595.6 L 910,599.8 L 920,598.8 L 930,593.5 L 940,585.0 L 950,574.8 L 960,564.4 L 970,555.0 L 980,547.5 L 990,542.5 L 1000,540.2 L 1010,540.5 L 1020,543.1 L 1030,547.7 L 1040,553.6 L 1050,560.4 L 1060,567.6 L 1070,574.8 L 1080,581.4 L 1090,587.3 L 1100,592.2 L 1110,596.0 L 1120,598.5 L 1130,599.8 L 1140,599.9 L 1150,598.9 L 1160,596.9 L 1170,594.0 L 1180,590.4 L 1190,586.2 L 1200,581.6 L 1210,576.8 L 1220,571.9 L 1230,567.0 L 1240,562.2 L 1250,557.8 L 1260,553.7 L 1270,550.0 L 1280,546.8 L 1290,544.3 L 1300,542.3 L 1310,540.9 L 1320,540.1 L 1330,540.0 L 1340,540.5 L 1350,541.6 L 1360,543.2 L 1370,545.4 L 1380,548.0 L 1390,551.0 L 1400,554.4 L 1410,558.0 L 1420,561.9 L 1430,565.9 L 1440,570.0" fill="none" stroke="#2f9e6b" stroke-width="1.4" stroke-linecap="round" opacity="0.9"/><circle cx="340" cy="545.0" r="1.1" fill="#2f9e6b" opacity="0.55"/><circle cx="120" cy="590.5" r="0.6" fill="#2f9e6b" opacity="0.39"/><circle cx="931" cy="586.8" r="1.4" fill="#2f9e6b" opacity="0.51"/><circle cx="1138" cy="604.5" r="1.1" fill="#2f9e6b" opacity="0.32"/><circle cx="445" cy="612.2" r="1.2" fill="#2f9e6b" opacity="0.44"/><circle cx="642" cy="530.5" r="1.2" fill="#2f9e6b" opacity="0.43"/><circle cx="1087" cy="576.1" r="1.7" fill="#2f9e6b" opacity="0.28"/><circle cx="380" cy="560.0" r="0.7" fill="#2f9e6b" opacity="0.55"/><circle cx="826" cy="545.5" r="1.6" fill="#2f9e6b" opacity="0.34"/><circle cx="1217" cy="560.5" r="0.7" fill="#2f9e6b" opacity="0.48"/><circle cx="1157" cy="598.2" r="1.6" fill="#2f9e6b" opacity="0.32"/><circle cx="643" cy="534.9" r="1.0" fill="#2f9e6b" opacity="0.49"/><circle cx="614" cy="583.8" r="1.6" fill="#2f9e6b" opacity="0.58"/><circle cx="19" cy="576.5" r="1.7" fill="#2f9e6b" opacity="0.60"/><path d="" /><path d="M 0,690.0 L 10,695.6 L 20,701.1 L 30,706.3 L 40,711.1 L 50,715.4 L 60,719.1 L 70,722.1 L 80,724.3 L 90,725.6 L 100,726.0 L 110,725.5 L 120,724.0 L 130,721.5 L 140,718.2 L 150,714.1 L 160,709.1 L 170,703.6 L 180,697.6 L 190,691.2 L 200,684.7 L 210,678.3 L 220,672.2 L 230,666.6 L 240,661.8 L 250,658.0 L 260,655.3 L 270,654.1 L 280,654.4 L 290,656.2 L 300,659.8 L 310,664.9 L 320,671.4 L 330,679.1 L 340,687.7 L 350,696.6 L 360,705.3 L 370,713.3 L 380,719.8 L 390,724.2 L 400,726.0 L 410,724.7 L 420,720.1 L 430,712.4 L 440,702.0 L 450,689.9 L 460,677.4 L 470,666.1 L 480,657.8 L 490,654.1 L 500,656.1 L 510,664.3 L 520,677.7 L 530,694.1 L 540,710.2 L 550,722.0 L 560,726.0 L 570,720.0 L 580,704.7 L 590,684.2 L 600,665.1 L 610,654.6 L 620,657.8 L 630,674.7 L 640,698.8 L 650,719.3 L 660,725.8 L 670,714.0 L 680,689.3 L 690,664.6 L 700,654.0 L 710,663.9 L 720,688.9 L 730,714.5 L 740,726.0 L 750,716.9 L 760,692.9 L 770,667.6 L 780,654.5 L 790,659.6 L 800,679.3 L 810,703.6 L 820,721.3 L 830,725.7 L 840,716.1 L 850,697.3 L 860,676.7 L 870,660.9 L 880,654.1 L 890,657.4 L 900,668.8 L 910,684.8 L 920,701.3 L 930,715.0 L 940,723.5 L 950,726.0 L 960,722.6 L 970,714.5 L 980,703.3 L 990,690.8 L 1000,678.6 L 1010,668.1 L 1020,660.2 L 1030,655.5 L 1040,654.0 L 1050,655.6 L 1060,660.0 L 1070,666.4 L 1080,674.3 L 1090,683.1 L 1100,692.0 L 1110,700.6 L 1120,708.4 L 1130,715.0 L 1140,720.1 L 1150,723.7 L 1160,725.6 L 1170,725.9 L 1180,724.7 L 1190,722.1 L 1200,718.3 L 1210,713.5 L 1220,707.9 L 1230,701.8 L 1240,695.4 L 1250,688.9 L 1260,682.5 L 1270,676.5 L 1280,670.9 L 1290,666.0 L 1300,661.8 L 1310,658.5 L 1320,656.0 L 1330,654.5 L 1340,654.0 L 1350,654.4 L 1360,655.7 L 1370,657.9 L 1380,660.9 L 1390,664.6 L 1400,668.9 L 1410,673.7 L 1420,678.9 L 1430,684.4 L 1440,690.0" fill="none" stroke="#2f9e6b" stroke-width="1.4" stroke-linecap="round" opacity="0.9"/><circle cx="150" cy="715.1" r="1.2" fill="#2f9e6b" opacity="0.30"/><circle cx="714" cy="683.4" r="1.6" fill="#2f9e6b" opacity="0.38"/><circle cx="323" cy="671.9" r="1.2" fill="#2f9e6b" opacity="0.36"/><circle cx="1339" cy="654.8" r="1.3" fill="#2f9e6b" opacity="0.44"/><circle cx="1358" cy="644.3" r="1.6" fill="#2f9e6b" opacity="0.34"/><circle cx="219" cy="679.6" r="0.8" fill="#2f9e6b" opacity="0.35"/><circle cx="431" cy="717.5" r="0.8" fill="#2f9e6b" opacity="0.47"/><circle cx="540" cy="710.4" r="0.9" fill="#2f9e6b" opacity="0.57"/><circle cx="104" cy="714.5" r="1.1" fill="#2f9e6b" opacity="0.35"/><circle cx="7" cy="689.3" r="0.7" fill="#2f9e6b" opacity="0.59"/><circle cx="330" cy="685.9" r="1.2" fill="#2f9e6b" opacity="0.40"/><circle cx="19" cy="689.7" r="1.6" fill="#2f9e6b" opacity="0.49"/><circle cx="305" cy="663.4" r="1.5" fill="#2f9e6b" opacity="0.45"/><circle cx="303" cy="659.2" r="0.6" fill="#2f9e6b" opacity="0.38"/><path d="" /><path d="M 0,810.0 L 10,812.8 L 20,815.6 L 30,818.3 L 40,820.9 L 50,823.3 L 60,825.6 L 70,827.6 L 80,829.4 L 90,831.0 L 100,832.2 L 110,833.2 L 120,833.8 L 130,834.0 L 140,833.9 L 150,833.3 L 160,832.4 L 170,831.1 L 180,829.4 L 190,827.4 L 200,825.0 L 210,822.3 L 220,819.3 L 230,816.1 L 240,812.7 L 250,809.1 L 260,805.5 L 270,802.0 L 280,798.5 L 290,795.3 L 300,792.4 L 310,789.9 L 320,788.0 L 330,786.6 L 340,786.0 L 350,786.2 L 360,787.3 L 370,789.3 L 380,792.1 L 390,795.9 L 400,800.4 L 410,805.5 L 420,811.0 L 430,816.7 L 440,822.1 L 450,827.0 L 460,830.9 L 470,833.3 L 480,834.0 L 490,832.6 L 500,829.1 L 510,823.5 L 520,816.2 L 530,807.9 L 540,799.6 L 550,792.4 L 560,787.5 L 570,786.0 L 580,788.6 L 590,795.2 L 600,805.0 L 610,816.1 L 620,826.2 L 630,832.7 L 640,833.6 L 650,828.1 L 660,817.4 L 670,804.4 L 680,792.8 L 690,786.5 L 700,787.7 L 710,796.3 L 720,809.4 L 730,822.8 L 740,831.9 L 750,833.7 L 760,828.0 L 770,816.7 L 780,803.5 L 790,792.5 L 800,786.6 L 810,787.0 L 820,793.1 L 830,803.1 L 840,814.2 L 850,824.2 L 860,831.1 L 870,833.9 L 880,832.7 L 890,828.0 L 900,820.9 L 910,812.6 L 920,804.3 L 930,796.9 L 940,791.2 L 950,787.6 L 960,786.0 L 970,786.6 L 980,789.0 L 990,792.8 L 1000,797.6 L 1010,803.0 L 1020,808.7 L 1030,814.2 L 1040,819.4 L 1050,823.9 L 1060,827.7 L 1070,830.6 L 1080,832.6 L 1090,833.7 L 1100,834.0 L 1110,833.4 L 1120,832.1 L 1130,830.1 L 1140,827.7 L 1150,824.8 L 1160,821.6 L 1170,818.1 L 1180,814.6 L 1190,811.0 L 1200,807.4 L 1210,804.0 L 1220,800.8 L 1230,797.7 L 1240,795.0 L 1250,792.6 L 1260,790.6 L 1270,788.9 L 1280,787.6 L 1290,786.7 L 1300,786.1 L 1310,786.0 L 1320,786.2 L 1330,786.8 L 1340,787.8 L 1350,789.0 L 1360,790.6 L 1370,792.4 L 1380,794.4 L 1390,796.7 L 1400,799.1 L 1410,801.7 L 1420,804.4 L 1430,807.2 L 1440,810.0" fill="none" stroke="#2f9e6b" stroke-width="1.4" stroke-linecap="round" opacity="0.9"/><circle cx="81" cy="840.8" r="0.8" fill="#2f9e6b" opacity="0.34"/><circle cx="210" cy="818.2" r="1.2" fill="#2f9e6b" opacity="0.56"/><circle cx="1271" cy="795.7" r="1.6" fill="#2f9e6b" opacity="0.33"/><circle cx="332" cy="799.8" r="1.5" fill="#2f9e6b" opacity="0.56"/><circle cx="50" cy="814.3" r="1.6" fill="#2f9e6b" opacity="0.52"/><circle cx="843" cy="825.9" r="1.6" fill="#2f9e6b" opacity="0.53"/><circle cx="546" cy="785.5" r="1.4" fill="#2f9e6b" opacity="0.38"/><circle cx="79" cy="839.3" r="0.8" fill="#2f9e6b" opacity="0.54"/><circle cx="942" cy="786.1" r="1.5" fill="#2f9e6b" opacity="0.55"/><circle cx="456" cy="816.1" r="0.8" fill="#2f9e6b" opacity="0.36"/><circle cx="142" cy="846.9" r="0.9" fill="#2f9e6b" opacity="0.47"/><circle cx="818" cy="796.6" r="1.5" fill="#2f9e6b" opacity="0.37"/><circle cx="56" cy="813.9" r="1.7" fill="#2f9e6b" opacity="0.31"/><circle cx="543" cy="784.4" r="1.3" fill="#2f9e6b" opacity="0.37"/><path d="" /></svg>