<svg viewBox="0 0 720 380" xmlns="http://www.w3.org/2000/svg" font-family="Helvetica, Arial, sans-serif">
<rect width="720" height="380" fill="#ECEFF1"/>
<rect x="0" y="0" width="720" height="32" fill="#003D6B"/>
<text x="14" y="22" fill="#ffffff" font-size="14" font-weight="700">Figure 2.2.1 — Diode detector response: square-law to linear</text>
<line x1="80" y1="320" x2="660" y2="320" stroke="#2C3E50" stroke-width="1.5"/><line x1="80" y1="60" x2="80" y2="320" stroke="#2C3E50" stroke-width="1.5"/><text x="370" y="360" font-size="12" fill="#2C3E50" text-anchor="middle">Input power (dBm)</text><text x="40" y="190" font-size="12" fill="#2C3E50" transform="rotate(-90, 40, 190)" text-anchor="middle">Detector output (V)</text><line x1="80" y1="320" x2="80" y2="325" stroke="#2C3E50"/><text x="80" y="340" font-size="10" fill="#2C3E50" text-anchor="middle">-70</text><line x1="196" y1="320" x2="196" y2="325" stroke="#2C3E50"/><text x="196" y="340" font-size="10" fill="#2C3E50" text-anchor="middle">-50</text><line x1="312" y1="320" x2="312" y2="325" stroke="#2C3E50"/><text x="312" y="340" font-size="10" fill="#2C3E50" text-anchor="middle">-30</text><line x1="428" y1="320" x2="428" y2="325" stroke="#2C3E50"/><text x="428" y="340" font-size="10" fill="#2C3E50" text-anchor="middle">-10</text><line x1="544" y1="320" x2="544" y2="325" stroke="#2C3E50"/><text x="544" y="340" font-size="10" fill="#2C3E50" text-anchor="middle">+10</text><line x1="660" y1="320" x2="660" y2="325" stroke="#2C3E50"/><text x="660" y="340" font-size="10" fill="#2C3E50" text-anchor="middle">+30</text><rect x="80" y="60" width="348" height="260" fill="#00b4ff" opacity="0.10"/><text x="254" y="80" font-size="11" fill="#003D6B" text-anchor="middle" font-weight="700">SQUARE-LAW REGION</text><text x="254" y="95" font-size="10" fill="#003D6B" text-anchor="middle">V ∝ P (true RMS, modulation independent)</text><rect x="428" y="60" width="174" height="260" fill="#003D6B" opacity="0.08"/><text x="515" y="80" font-size="11" fill="#003D6B" text-anchor="middle" font-weight="700">LINEAR REGION</text><text x="515" y="95" font-size="10" fill="#003D6B" text-anchor="middle">V ∝ peak envelope</text><polyline points="80,260 84,258 88,256 92,254 96,252 100,250 104,248 108,246 112,243 116,241 120,239 124,237 128,235 132,233 136,231 140,229 144,227 148,225 152,223 156,221 160,219 164,217 168,214 172,212 176,210 180,208 184,206 188,204 192,202 196,200 200,198 204,196 208,194 212,192 216,190 220,188 224,186 228,183 232,181 236,179 240,177 244,175 248,173 252,171 256,169 260,167 264,165 268,163 272,161 276,159 280,157 284,154 288,152 292,150 296,148 300,146 304,144 308,142 312,140 316,138 320,136 324,134 328,132 332,130 336,128 340,126 344,123 348,121 352,119 356,117 360,115 364,113 368,111 372,109 376,108 380,106 384,104 388,103 392,102 396,100 400,99 404,98 408,96 412,95 416,94 420,93 424,93 428,92 432,92 436,91 440,92 444,92 448,93 452,96 456,101 460,102 464,101 468,100 472,99 476,98 480,97 484,96 488,95 492,94 496,93 500,92 504,91 508,90 512,89 516,88 520,87 524,86 528,85 532,84 536,83 540,82 544,81 548,80 552,79 556,78 560,77 564,76 568,74 572,73 576,72 580,71 584,70 588,69 592,68 596,67 600,66 604,65 608,64 612,63 616,62 620,61" fill="none" stroke="#00b4ff" stroke-width="2.6"/><line x1="428" y1="60" x2="428" y2="320" stroke="#00ff88" stroke-width="2" stroke-dasharray="4,3"/><text x="428" y="55" font-size="10" fill="#00ff88" text-anchor="middle" font-weight="700">-20 dBm knee</text></svg>
