<svg viewBox="0 0 720 380" xmlns="http://www.w3.org/2000/svg" font-family="Helvetica, Arial, sans-serif">
<rect width="720" height="380" fill="#ECEFF1"/>
<rect x="0" y="0" width="720" height="32" fill="#003D6B"/>
<text x="14" y="22" fill="#ffffff" font-size="14" font-weight="700">Figure 3.4.1 — Dynamic range eaten by peak-to-average ratio</text>
<text x="370" y="60" font-size="13" font-weight="700" fill="#003D6B" text-anchor="middle">Sensor dynamic range vs. signal characteristics</text><rect x="200" y="100" width="400" height="28" fill="#ECEFF1" stroke="#003D6B" stroke-width="1"/><rect x="200" y="100" width="0" height="28" fill="#0078B6"/><rect x="200" y="100" width="400" height="28" fill="#00ff88"/><text x="190" y="119" font-size="11" fill="#003D6B" text-anchor="end" font-weight="700">CW signal</text><text x="610" y="119" font-size="10" fill="#2C3E50">Full sensor range available</text><rect x="200" y="160" width="400" height="28" fill="#ECEFF1" stroke="#003D6B" stroke-width="1"/><rect x="200" y="160" width="53" height="28" fill="#0078B6"/><rect x="253" y="160" width="347" height="28" fill="#00ff88"/><text x="190" y="179" font-size="11" fill="#003D6B" text-anchor="end" font-weight="700">AM modulated</text><text x="610" y="179" font-size="10" fill="#2C3E50">8 dB peak-to-average</text><rect x="200" y="220" width="400" height="28" fill="#ECEFF1" stroke="#003D6B" stroke-width="1"/><rect x="200" y="220" width="147" height="28" fill="#0078B6"/><rect x="347" y="220" width="253" height="28" fill="#00ff88"/><text x="190" y="239" font-size="11" fill="#003D6B" text-anchor="end" font-weight="700">OFDM (5G NR)</text><text x="610" y="239" font-size="10" fill="#2C3E50">12 dB PAPR + 10 dB margin</text><rect x="200" y="280" width="400" height="28" fill="#ECEFF1" stroke="#003D6B" stroke-width="1"/><rect x="200" y="280" width="333" height="28" fill="#0078B6"/><rect x="533" y="280" width="67" height="28" fill="#00ff88"/><text x="190" y="299" font-size="11" fill="#003D6B" text-anchor="end" font-weight="700">Radar pulse, 0.1% duty</text><text x="610" y="299" font-size="10" fill="#2C3E50">Average + 30 dB peak + headroom</text><g transform="translate(200,340)" font-size="11"><rect x="0" y="0" width="20" height="14" fill="#0078B6"/><text x="26" y="11" fill="#2C3E50">Headroom needed for peaks</text><rect x="220" y="0" width="20" height="14" fill="#00ff88"/><text x="246" y="11" fill="#2C3E50">Usable measurement range</text></g></svg>
