<svg viewBox="0 0 720 360" xmlns="http://www.w3.org/2000/svg" font-family="Helvetica, Arial, sans-serif">
<rect width="720" height="360" fill="#ECEFF1"/>
<rect x="0" y="0" width="720" height="32" fill="#003D6B"/>
<text x="14" y="22" fill="#ffffff" font-size="14" font-weight="700">Figure 4.4.1 — Dual-diode RF power sensor (full-wave detection)</text>
<text x="20" y="190" font-size="12" fill="#2C3E50">RF in</text><line x1="60" y1="180" x2="120" y2="180" stroke="#2C3E50" stroke-width="2"/><circle cx="120" cy="180" r="4" fill="#003D6B"/><line x1="120" y1="180" x2="120" y2="120" stroke="#2C3E50" stroke-width="2"/><line x1="120" y1="180" x2="120" y2="240" stroke="#2C3E50" stroke-width="2"/><line x1="120" y1="120" x2="200" y2="120" stroke="#2C3E50" stroke-width="2"/><line x1="120" y1="240" x2="200" y2="240" stroke="#2C3E50" stroke-width="2"/><polygon points="200,110 220,120 200,130" fill="#003D6B"/><line x1="220" y1="105" x2="220" y2="135" stroke="#003D6B" stroke-width="2"/><text x="210" y="98" font-size="10" fill="#003D6B">D+</text><polygon points="220,230 200,240 220,250" fill="#003D6B"/><line x1="200" y1="225" x2="200" y2="255" stroke="#003D6B" stroke-width="2"/><text x="208" y="270" font-size="10" fill="#003D6B">D-</text><line x1="220" y1="120" x2="320" y2="120" stroke="#2C3E50" stroke-width="2"/><line x1="220" y1="240" x2="320" y2="240" stroke="#2C3E50" stroke-width="2"/><rect x="320" y="110" width="50" height="20" fill="#0078B6" stroke="#003D6B"/><text x="345" y="124" font-size="10" fill="#ffffff" text-anchor="middle">R₀</text><rect x="320" y="230" width="50" height="20" fill="#0078B6" stroke="#003D6B"/><text x="345" y="244" font-size="10" fill="#ffffff" text-anchor="middle">R₀</text><polygon points="450,100 450,260 540,180" fill="#003D6B" stroke="#003D6B"/><text x="475" y="155" font-size="11" fill="#ffffff">+</text><text x="475" y="215" font-size="11" fill="#ffffff">-</text><line x1="370" y1="120" x2="450" y2="140" stroke="#2C3E50" stroke-width="2"/><line x1="370" y1="240" x2="450" y2="220" stroke="#2C3E50" stroke-width="2"/><line x1="540" y1="180" x2="600" y2="180" stroke="#2C3E50" stroke-width="2"/><rect x="600" y="160" width="80" height="40" fill="#00ff88" stroke="#003D6B"/><text x="640" y="185" font-size="11" fill="#003D6B" text-anchor="middle" font-weight="700">V_out</text><text x="360" y="320" font-size="11" fill="#2C3E50" text-anchor="middle" font-style="italic">Two diodes in full-wave rectification cancel harmonics, reduce noise, and lower the noise floor.</text></svg>
