<svg viewBox="0 0 720 200" xmlns="http://www.w3.org/2000/svg" font-family="Helvetica, Arial, sans-serif">
<rect width="720" height="200" fill="#ECEFF1"/>
<rect x="0" y="0" width="720" height="32" fill="#003D6B"/>
<text x="14" y="22" fill="#ffffff" font-size="14" font-weight="700">Figure A.1 — BNC palette (used throughout this book)</text>
<rect x="50" y="60" width="80" height="80" fill="#003D6B" stroke="#003D6B" stroke-width="1"/><text x="90" y="100" font-size="10" fill="#ffffff" text-anchor="middle" font-weight="700">Deep Navy</text><text x="90" y="115" font-size="8" fill="#ffffff" text-anchor="middle">#003D6B</text><rect x="145" y="60" width="80" height="80" fill="#0078B6" stroke="#003D6B" stroke-width="1"/><text x="185" y="100" font-size="10" fill="#ffffff" text-anchor="middle" font-weight="700">Sky Blue</text><text x="185" y="115" font-size="8" fill="#ffffff" text-anchor="middle">#0078B6</text><rect x="240" y="60" width="80" height="80" fill="#2C3E50" stroke="#003D6B" stroke-width="1"/><text x="280" y="100" font-size="10" fill="#ffffff" text-anchor="middle" font-weight="700">Charcoal</text><text x="280" y="115" font-size="8" fill="#ffffff" text-anchor="middle">#2C3E50</text><rect x="335" y="60" width="80" height="80" fill="#ECEFF1" stroke="#003D6B" stroke-width="1"/><text x="375" y="100" font-size="10" fill="#003D6B" text-anchor="middle" font-weight="700">Light Steel</text><text x="375" y="115" font-size="8" fill="#003D6B" text-anchor="middle">#ECEFF1</text><rect x="430" y="60" width="80" height="80" fill="#7fdbff" stroke="#003D6B" stroke-width="1"/><text x="470" y="100" font-size="10" fill="#003D6B" text-anchor="middle" font-weight="700">Light Cyan</text><text x="470" y="115" font-size="8" fill="#003D6B" text-anchor="middle">#7fdbff</text><rect x="525" y="60" width="80" height="80" fill="#00b4ff" stroke="#003D6B" stroke-width="1"/><text x="565" y="100" font-size="10" fill="#ffffff" text-anchor="middle" font-weight="700">Bright Cyan</text><text x="565" y="115" font-size="8" fill="#ffffff" text-anchor="middle">#00b4ff</text><rect x="620" y="60" width="80" height="80" fill="#00ff88" stroke="#003D6B" stroke-width="1"/><text x="660" y="100" font-size="10" fill="#003D6B" text-anchor="middle" font-weight="700">Target Green</text><text x="660" y="115" font-size="8" fill="#003D6B" text-anchor="middle">#00ff88</text></svg>
