<svg viewBox="0 0 720 460" xmlns="http://www.w3.org/2000/svg" font-family="Helvetica, Arial, sans-serif">
<rect width="720" height="460" fill="#ECEFF1"/>
<rect x="0" y="0" width="720" height="32" fill="#003D6B"/>
<text x="14" y="22" fill="#ffffff" font-size="14" font-weight="700">Figure 3.2.1 — Three signal types: CW, modulated, pulsed</text>
<text x="40" y="70" font-size="12" font-weight="700" fill="#003D6B">CW (continuous wave)</text><line x1="80" y1="150" x2="680" y2="150" stroke="#2C3E50" stroke-width="1"/><polyline points="80,110 82,92 84,81 86,81 88,92 90,110 92,128 94,139 96,139 98,128 100,110 102,92 104,81 106,81 108,92 110,110 112,128 114,139 116,139 118,128 120,110 122,92 124,81 126,81 128,92 130,110 132,128 134,139 136,139 138,128 140,110 142,92 144,81 146,81 148,92 150,110 152,128 154,139 156,139 158,128 160,110 162,92 164,81 166,81 168,92 170,110 172,128 174,139 176,139 178,128 180,110 182,92 184,81 186,81 188,92 190,110 192,128 194,139 196,139 198,128 200,110 202,92 204,81 206,81 208,92 210,110 212,128 214,139 216,139 218,128 220,110 222,92 224,81 226,81 228,92 230,110 232,128 234,139 236,139 238,128 240,110 242,92 244,81 246,81 248,92 250,110 252,128 254,139 256,139 258,128 260,110 262,92 264,81 266,81 268,92 270,110 272,128 274,139 276,139 278,128 280,110 282,92 284,81 286,81 288,92 290,110 292,128 294,139 296,139 298,128 300,110 302,92 304,81 306,81 308,92 310,110 312,128 314,139 316,139 318,128 320,110 322,92 324,81 326,81 328,92 330,110 332,128 334,139 336,139 338,128 340,110 342,92 344,81 346,81 348,92 350,110 352,128 354,139 356,139 358,128 360,110 362,92 364,81 366,81 368,92 370,110 372,128 374,139 376,139 378,128 380,110 382,92 384,81 386,81 388,92 390,110 392,128 394,139 396,139 398,128 400,110 402,92 404,81 406,81 408,92 410,110 412,128 414,139 416,139 418,128 420,110 422,92 424,81 426,81 428,92 430,110 432,128 434,139 436,139 438,128 440,110 442,92 444,81 446,81 448,92 450,110 452,128 454,139 456,139 458,128 460,110 462,92 464,81 466,81 468,92 470,110 472,128 474,139 476,139 478,128 480,110 482,92 484,81 486,81 488,92 490,110 492,128 494,139 496,139 498,128 500,110 502,92 504,81 506,81 508,92 510,110 512,128 514,139 516,139 518,128 520,110 522,92 524,81 526,81 528,92 530,110 532,128 534,139 536,139 538,128 540,110 542,92 544,81 546,81 548,92 550,110 552,128 554,139 556,139 558,128 560,110 562,92 564,81 566,81 568,92 570,110 572,128 574,139 576,139 578,128 580,110 582,92 584,81 586,81 588,92 590,110 592,128 594,139 596,139 598,128 600,110 602,92 604,81 606,81 608,92 610,110 612,128 614,139 616,139 618,128 620,110 622,92 624,81 626,81 628,92 630,110 632,128 634,139 636,139 638,128 640,110 642,92 644,81 646,81 648,92 650,110 652,128 654,139 656,139 658,128 660,110 662,92 664,81 666,81 668,92 670,110 672,128 674,139 676,139 678,128" fill="none" stroke="#7fdbff" stroke-width="1"/><line x1="80" y1="80" x2="680" y2="80" stroke="#00b4ff" stroke-width="2.5"/><text x="685" y="84" font-size="10" fill="#00b4ff">Envelope</text><text x="40" y="190" font-size="12" font-weight="700" fill="#003D6B">Modulated (OFDM-like)</text><line x1="80" y1="270" x2="680" y2="270" stroke="#2C3E50" stroke-width="1"/><polyline points="80,230 82,213 84,202 86,202 88,213 90,230 92,248 94,258 96,268 98,254 100,230 102,213 104,202 106,218 108,223 110,230 112,251 114,264 116,257 118,246 120,230 122,213 124,203 126,199 128,211 130,230 132,250 134,262 136,274 138,257 140,230 142,207 144,192 146,199 148,211 150,230 152,243 154,251 156,248 158,241 160,230 162,210 164,197 166,185 168,202 170,230 172,249 174,260 176,258 178,248 180,230 182,208 184,194 186,218 188,222 190,230 192,246 194,256 196,266 198,252 200,230 202,205 204,190 206,203 208,213 210,230 212,251 214,264 216,263 218,250 220,230 222,206 224,191 226,214 228,220 230,230 232,253 234,266 236,242 238,237 240,230 242,231 244,231 246,207 248,216 250,230 252,242 254,249 256,270 258,255 260,230 262,207 264,192 266,215 268,221 270,230 272,255 274,270 276,248 278,241 280,230 282,212 284,201 286,204 288,214 290,230 292,249 294,261 296,269 298,254 300,230 302,207 304,193 306,196 308,209 310,230 312,253 314,267 316,265 318,252 320,230 322,216 324,208 326,209 328,217 330,230 332,245 334,254 336,266 338,252 340,230 342,213 344,203 346,173 348,194 350,230 352,242 354,250 356,247 358,240 360,230 362,206 364,191 366,183 368,201 370,230 372,252 374,266 376,270 378,255 380,230 382,201 384,183 386,201 388,212 390,230 392,238 394,243 396,253 398,244 400,230 402,205 404,189 406,217 408,222 410,230 412,249 414,260 416,263 418,250 420,230 422,214 424,204 426,192 428,206 430,230 432,253 434,267 436,287 438,265 440,230 442,207 444,193 446,208 448,216 450,230 452,244 454,253 456,250 458,242 460,230 462,205 464,189 466,207 468,216 470,230 472,248 474,259 476,269 478,254 480,230 482,217 484,209 486,204 488,214 490,230 492,235 494,238 496,247 498,240 500,230 502,216 504,207 506,195 508,209 510,230 512,257 514,274 516,260 518,248 520,230 522,210 524,197 526,198 528,210 530,230 532,256 534,273 536,270 538,255 540,230 542,210 544,197 546,212 548,219 550,230 552,255 554,270 556,264 558,251 560,230 562,203 564,186 566,201 568,212 570,230 572,263 574,283 576,255 578,246 580,230 582,200 584,181 586,199 588,211 590,230 592,245 594,254 596,246 598,240 600,230 602,213 604,202 606,183 608,201 610,230 612,254 614,269 616,268 618,253 620,230 622,229 624,229 626,192 628,206 630,230 632,252 634,266 636,253 638,244 640,230 642,216 644,208 646,200 648,212 650,230 652,261 654,280 656,247 658,241 660,230 662,215 664,205 666,184 668,202 670,230 672,245 674,254 676,255 678,246" fill="none" stroke="#7fdbff" stroke-width="1"/><polyline points="80,201 82,201 84,201 86,201 88,201 90,200 92,200 94,200 96,190 98,190 100,200 102,200 104,200 106,217 108,217 110,195 112,195 114,195 116,202 118,202 120,201 122,201 124,201 126,197 128,197 130,196 132,196 134,196 136,184 138,184 140,191 142,191 144,191 146,197 148,197 150,208 152,208 154,208 156,211 158,211 160,196 162,196 164,196 166,182 168,182 170,198 172,198 174,198 176,200 178,200 180,192 182,192 184,192 186,217 188,217 190,203 192,203 194,203 196,193 198,193 200,188 202,188 204,188 206,202 208,202 210,194 212,194 214,194 216,196 218,196 220,189 222,189 224,189 226,213 228,213 230,192 232,192 234,192 236,218 238,218 240,231 242,231 244,231 246,206 248,206 250,210 252,210 254,210 256,188 258,188 260,190 262,190 264,190 266,214 268,214 270,188 272,188 274,188 276,211 278,211 280,200 282,200 284,200 286,202 288,202 290,197 292,197 294,197 296,189 298,189 300,191 302,191 304,191 306,194 308,194 310,191 312,191 314,191 316,193 318,193 320,207 322,207 324,207 326,208 328,208 330,205 332,205 334,205 336,193 338,193 340,202 342,202 344,202 346,170 348,170 350,209 352,209 354,209 356,212 358,212 360,189 362,189 364,189 366,181 368,181 370,192 372,192 374,192 376,188 378,188 380,181 382,181 384,181 386,200 388,200 390,217 392,217 394,217 396,205 398,205 400,187 402,187 404,187 406,217 408,217 410,198 412,198 414,198 416,196 418,196 420,203 422,203 424,203 426,190 428,190 430,191 432,191 434,191 436,170 438,170 440,191 442,191 444,191 446,206 448,206 450,206 452,206 454,206 456,209 458,209 460,187 462,187 464,187 466,206 468,206 470,200 472,200 474,200 476,189 478,189 480,208 482,208 484,208 486,202 488,202 490,222 492,222 494,222 496,212 498,212 500,206 502,206 504,206 506,194 508,194 510,184 512,184 514,184 516,199 518,199 520,195 522,195 524,195 526,197 528,197 530,185 532,185 534,185 536,188 538,188 540,195 542,195 544,195 546,211 548,211 550,187 552,187 554,187 556,194 558,194 560,183 562,183 564,183 566,199 568,199 570,174 572,174 574,174 576,203 578,203 580,179 582,179 584,179 586,197 588,197 590,205 592,205 594,205 596,213 598,213 600,201 602,201 604,201 606,181 608,181 610,189 612,189 614,189 616,190 618,190 620,228 622,228 624,228 626,190 628,190 630,192 632,192 634,192 636,206 638,206 640,207 642,207 644,207 646,199 648,199 650,177 652,177 654,177 656,212 658,212 660,204 662,204 664,204 666,182 668,182 670,204 672,204 674,204 676,203 678,203" fill="none" stroke="#00b4ff" stroke-width="2.4"/><text x="685" y="204" font-size="10" fill="#00b4ff">Envelope</text><text x="40" y="310" font-size="12" font-weight="700" fill="#003D6B">Pulsed radar</text><line x1="80" y1="390" x2="680" y2="390" stroke="#2C3E50" stroke-width="1"/><polyline points="80,350 82,350 84,350 86,350 88,350 90,350 92,350 94,350 96,350 98,350 100,350 102,350 104,350 106,350 108,350 110,350 112,350 114,350 116,350 118,350 120,350 122,350 124,350 126,350 128,350 130,350 132,379 134,398 136,398 138,379 140,350 142,321 144,302 146,302 148,321 150,350 152,379 154,398 156,398 158,379 160,350 162,350 164,350 166,350 168,350 170,350 172,350 174,350 176,350 178,350 180,350 182,350 184,350 186,350 188,350 190,350 192,350 194,350 196,350 198,350 200,350 202,350 204,350 206,350 208,350 210,350 212,350 214,350 216,350 218,350 220,350 222,350 224,350 226,350 228,350 230,350 232,350 234,350 236,350 238,350 240,350 242,350 244,350 246,350 248,350 250,350 252,350 254,350 256,350 258,350 260,350 262,350 264,350 266,350 268,350 270,350 272,350 274,350 276,350 278,350 280,350 282,350 284,350 286,350 288,350 290,350 292,350 294,350 296,350 298,350 300,350 302,321 304,302 306,302 308,321 310,350 312,379 314,398 316,398 318,379 320,350 322,321 324,302 326,302 328,321 330,350 332,350 334,350 336,350 338,350 340,350 342,350 344,350 346,350 348,350 350,350 352,350 354,350 356,350 358,350 360,350 362,350 364,350 366,350 368,350 370,350 372,350 374,350 376,350 378,350 380,350 382,350 384,350 386,350 388,350 390,350 392,350 394,350 396,350 398,350 400,350 402,350 404,350 406,350 408,350 410,350 412,350 414,350 416,350 418,350 420,350 422,350 424,350 426,350 428,350 430,350 432,350 434,350 436,350 438,350 440,350 442,350 444,350 446,350 448,350 450,350 452,350 454,350 456,350 458,350 460,350 462,350 464,350 466,350 468,350 470,350 472,379 474,398 476,398 478,379 480,350 482,321 484,302 486,302 488,321 490,350 492,379 494,398 496,398 498,379 500,350 502,350 504,350 506,350 508,350 510,350 512,350 514,350 516,350 518,350 520,350 522,350 524,350 526,350 528,350 530,350 532,350 534,350 536,350 538,350 540,350 542,350 544,350 546,350 548,350 550,350 552,350 554,350 556,350 558,350 560,350 562,350 564,350 566,350 568,350 570,350 572,350 574,350 576,350 578,350 580,350 582,350 584,350 586,350 588,350 590,350 592,350 594,350 596,350 598,350 600,350 602,350 604,350 606,350 608,350 610,350 612,350 614,350 616,350 618,350 620,350 622,350 624,350 626,350 628,350 630,350 632,350 634,350 636,350 638,350 640,350 642,321 644,302 646,302 648,321 650,350 652,379 654,398 656,398 658,379 660,350 662,321 664,302 666,302 668,321 670,350 672,350 674,350 676,350 678,350" fill="none" stroke="#7fdbff" stroke-width="1"/><rect x="130" y="300" width="30" height="50" fill="#00b4ff" opacity="0.3"/><line x1="130" y1="300" x2="160" y2="300" stroke="#00b4ff" stroke-width="2.5"/><rect x="300" y="300" width="30" height="50" fill="#00b4ff" opacity="0.3"/><line x1="300" y1="300" x2="330" y2="300" stroke="#00b4ff" stroke-width="2.5"/><rect x="470" y="300" width="30" height="50" fill="#00b4ff" opacity="0.3"/><line x1="470" y1="300" x2="500" y2="300" stroke="#00b4ff" stroke-width="2.5"/><rect x="640" y="300" width="30" height="50" fill="#00b4ff" opacity="0.3"/><line x1="640" y1="300" x2="670" y2="300" stroke="#00b4ff" stroke-width="2.5"/><text x="685" y="304" font-size="10" fill="#00b4ff">Peak</text></svg>
