<svg viewBox="0 0 760 380" xmlns="http://www.w3.org/2000/svg" font-family="Helvetica, Arial, sans-serif">
<rect width="760" height="380" fill="#ECEFF1"/>
<rect x="0" y="0" width="760" height="32" fill="#003D6B"/>
<text x="14" y="22" fill="#ffffff" font-size="14" font-weight="700">Figure 1.1.1 — Instantaneous and average power</text>
<text x="120" y="60" font-size="13" font-weight="700" fill="#003D6B">Resistive load (V and I in phase)</text><text x="500" y="60" font-size="13" font-weight="700" fill="#003D6B">Complex load (45° phase shift)</text><line x1="40" y1="200" x2="370" y2="200" stroke="#2C3E50" stroke-width="1"/><line x1="40" y1="80" x2="40" y2="340" stroke="#2C3E50" stroke-width="1"/><text x="10" y="205" font-size="10" fill="#2C3E50">0</text><text x="50" y="350" font-size="10" fill="#2C3E50">Phase →</text><line x1="420" y1="200" x2="750" y2="200" stroke="#2C3E50" stroke-width="1"/><line x1="420" y1="80" x2="420" y2="340" stroke="#2C3E50" stroke-width="1"/><text x="390" y="205" font-size="10" fill="#2C3E50">0</text><text x="430" y="350" font-size="10" fill="#2C3E50">Phase →</text><polyline points="40,200 43,191 46,182 49,173 52,165 55,157 58,149 61,143 64,137 67,131 70,127 73,124 76,122 79,120 82,120 85,121 88,123 91,125 94,129 97,134 100,140 103,146 106,153 109,161 112,169 115,177 118,186 121,195 124,205 127,214 130,223 133,231 136,239 139,247 142,254 145,260 148,266 151,271 154,275 157,277 160,279 163,280 166,280 169,278 172,276 175,273 178,269 181,263 184,257 187,251 190,243 193,235 196,227 199,218 202,209 205,200 208,191 211,182 214,173 217,165 220,157 223,149 226,143 229,137 232,131 235,127 238,124 241,122 244,120 247,120 250,121 253,123 256,125 259,129 262,134 265,140 268,146 271,153 274,161 277,169 280,177 283,186 286,195 289,205 292,214 295,223 298,231 301,239 304,247 307,254 310,260 313,266 316,271 319,275 322,277 325,279 328,280 331,280 334,278 337,276 340,273 343,269 346,263 349,257 352,251 355,243 358,235 361,227 364,218 367,209 370,200" fill="none" stroke="#7fdbff" stroke-width="1.6"/><polyline points="40,200 43,195 46,189 49,184 52,179 55,174 58,170 61,166 64,162 67,159 70,156 73,154 76,153 79,152 82,152 85,152 88,154 91,155 94,158 97,160 100,164 103,168 106,172 109,176 112,181 115,186 118,192 121,197 124,203 127,208 130,214 133,219 136,224 139,228 142,232 145,236 148,240 151,242 154,245 157,246 160,248 163,248 166,248 169,247 172,246 175,244 178,241 181,238 184,234 187,230 190,226 193,221 196,216 199,211 202,205 205,200 208,195 211,189 214,184 217,179 220,174 223,170 226,166 229,162 232,159 235,156 238,154 241,153 244,152 247,152 250,152 253,154 256,155 259,158 262,160 265,164 268,168 271,172 274,176 277,181 280,186 283,192 286,197 289,203 292,208 295,214 298,219 301,224 304,228 307,232 310,236 313,240 316,242 319,245 322,246 325,248 328,248 331,248 334,247 337,246 340,244 343,241 346,238 349,234 352,230 355,226 358,221 361,216 364,211 367,205 370,200" fill="none" stroke="#0078B6" stroke-width="1.6"/><polyline points="40,210 43,209 46,206 49,201 52,194 55,187 58,178 61,169 64,160 67,151 70,144 73,138 76,133 79,131 82,130 85,132 88,135 91,141 94,147 97,155 100,164 103,173 106,182 109,191 112,198 115,204 118,208 121,210 124,210 127,208 130,204 133,198 136,191 139,182 142,173 145,164 148,155 151,147 154,141 157,135 160,132 163,130 166,131 169,133 172,138 175,144 178,151 181,160 184,169 187,178 190,187 193,194 196,201 199,206 202,209 205,210 208,209 211,206 214,201 217,194 220,187 223,178 226,169 229,160 232,151 235,144 238,138 241,133 244,131 247,130 250,132 253,135 256,141 259,147 262,155 265,164 268,173 271,182 274,191 277,198 280,204 283,208 286,210 289,210 292,208 295,204 298,198 301,191 304,182 307,173 310,164 313,155 316,147 319,141 322,135 325,132 328,130 331,131 334,133 337,138 340,144 343,151 346,160 349,169 352,178 355,187 358,194 361,201 364,206 367,209 370,210" fill="none" stroke="#00b4ff" stroke-width="2.4"/><line x1="40" y1="265" x2="370" y2="265" stroke="#00ff88" stroke-width="2" stroke-dasharray="4,3"/><text x="380" y="269" font-size="10" fill="#00ff88">Avg P</text><polyline points="420,200 423,191 426,182 429,173 432,165 435,157 438,149 441,143 444,137 447,131 450,127 453,124 456,122 459,120 462,120 465,121 468,123 471,125 474,129 477,134 480,140 483,146 486,153 489,161 492,169 495,177 498,186 501,195 504,205 507,214 510,223 513,231 516,239 519,247 522,254 525,260 528,266 531,271 534,275 537,277 540,279 543,280 546,280 549,278 552,276 555,273 558,269 561,263 564,257 567,251 570,243 573,235 576,227 579,218 582,209 585,200 588,191 591,182 594,173 597,165 600,157 603,149 606,143 609,137 612,131 615,127 618,124 621,122 624,120 627,120 630,121 633,123 636,125 639,129 642,134 645,140 648,146 651,153 654,161 657,169 660,177 663,186 666,195 669,205 672,214 675,223 678,231 681,239 684,247 687,254 690,260 693,266 696,271 699,275 702,277 705,279 708,280 711,280 714,278 717,276 720,273 723,269 726,263 729,257 732,251 735,243 738,235 741,227 744,218 747,209 750,200" fill="none" stroke="#7fdbff" stroke-width="1.6"/><polyline points="420,234 423,230 426,225 429,221 432,215 435,210 438,205 441,199 444,194 447,188 450,183 453,178 456,173 459,169 462,165 465,162 468,159 471,156 474,154 477,153 480,152 483,152 486,153 489,154 492,156 495,158 498,161 501,164 504,168 507,172 510,177 513,182 516,187 519,192 522,198 525,203 528,209 531,214 534,219 537,224 540,229 543,233 546,237 549,240 552,243 555,245 558,247 561,248 564,248 567,248 570,247 573,245 576,243 579,241 582,238 585,234 588,230 591,225 594,221 597,215 600,210 603,205 606,199 609,194 612,188 615,183 618,178 621,173 624,169 627,165 630,162 633,159 636,156 639,154 642,153 645,152 648,152 651,153 654,154 657,156 660,158 663,161 666,164 669,168 672,172 675,177 678,182 681,187 684,192 687,198 690,203 693,209 696,214 699,219 702,224 705,229 708,233 711,237 714,240 717,243 720,245 723,247 726,248 729,248 732,248 735,247 738,245 741,243 744,241 747,238 750,234" fill="none" stroke="#0078B6" stroke-width="1.6"/><polyline points="420,210 423,216 426,220 429,222 432,221 435,219 438,215 441,209 444,202 447,194 450,185 453,175 456,167 459,159 462,152 465,147 468,143 471,142 474,142 477,145 480,150 483,156 486,164 489,172 492,181 495,190 498,199 501,207 504,213 507,218 510,221 513,222 516,221 519,217 522,212 525,206 528,198 531,189 534,180 537,171 540,163 543,155 546,149 549,145 552,142 555,142 558,144 561,147 564,153 567,160 570,168 573,177 576,186 579,195 582,203 585,210 588,216 591,220 594,222 597,221 600,219 603,215 606,209 609,202 612,194 615,185 618,175 621,167 624,159 627,152 630,147 633,143 636,142 639,142 642,145 645,150 648,156 651,164 654,172 657,181 660,190 663,199 666,207 669,213 672,218 675,221 678,222 681,221 684,217 687,212 690,206 693,198 696,189 699,180 702,171 705,163 708,155 711,149 714,145 717,142 720,142 723,144 726,147 729,153 732,160 735,168 738,177 741,186 744,195 747,203 750,210" fill="none" stroke="#00b4ff" stroke-width="2.4"/><line x1="420" y1="245" x2="750" y2="245" stroke="#00ff88" stroke-width="2" stroke-dasharray="4,3"/><g transform="translate(40,360)" font-size="10"><line x1="0" y1="0" x2="20" y2="0" stroke="#7fdbff" stroke-width="2"/><text x="26" y="3" fill="#2C3E50">Voltage</text><line x1="80" y1="0" x2="100" y2="0" stroke="#0078B6" stroke-width="2"/><text x="106" y="3" fill="#2C3E50">Current</text><line x1="160" y1="0" x2="180" y2="0" stroke="#00b4ff" stroke-width="2"/><text x="186" y="3" fill="#2C3E50">Instantaneous Power</text><line x1="320" y1="0" x2="340" y2="0" stroke="#00ff88" stroke-width="2" stroke-dasharray="3,2"/><text x="346" y="3" fill="#2C3E50">Average Power</text></g></svg>
