<svg viewBox="0 0 720 440" xmlns="http://www.w3.org/2000/svg" font-family="Helvetica, Arial, sans-serif">
<rect width="720" height="440" fill="#ECEFF1"/>
<rect x="0" y="0" width="720" height="32" fill="#003D6B"/>
<text x="14" y="22" fill="#ffffff" font-size="14" font-weight="700">Figure 8.2.1 — Sequential vs. buffered ATE measurement cycle</text>
<text x="60" y="80" font-size="13" font-weight="700" fill="#003D6B">Sequential cycle (legacy)</text><rect x="60" y="100" width="60" height="30" fill="#0078B6" stroke="#003D6B" stroke-width="0.5"/><text x="90.0" y="118" font-size="9" fill="#ffffff" text-anchor="middle">Cfg</text><rect x="120" y="100" width="40" height="30" fill="#ECEFF1" stroke="#003D6B" stroke-width="0.5"/><text x="140.0" y="118" font-size="9" fill="#003D6B" text-anchor="middle">Settle</text><rect x="160" y="100" width="50" height="30" fill="#00b4ff" stroke="#003D6B" stroke-width="0.5"/><text x="185.0" y="118" font-size="9" fill="#ffffff" text-anchor="middle">Acq</text><rect x="210" y="100" width="30" height="30" fill="#003D6B" stroke="#003D6B" stroke-width="0.5"/><text x="225.0" y="118" font-size="9" fill="#ffffff" text-anchor="middle">Proc</text><rect x="240" y="100" width="30" height="30" fill="#00ff88" stroke="#003D6B" stroke-width="0.5"/><text x="255.0" y="118" font-size="9" fill="#003D6B" text-anchor="middle">Read</text><rect x="270" y="100" width="60" height="30" fill="#0078B6" stroke="#003D6B" stroke-width="0.5"/><rect x="330" y="100" width="40" height="30" fill="#ECEFF1" stroke="#003D6B" stroke-width="0.5"/><rect x="370" y="100" width="50" height="30" fill="#00b4ff" stroke="#003D6B" stroke-width="0.5"/><rect x="420" y="100" width="30" height="30" fill="#003D6B" stroke="#003D6B" stroke-width="0.5"/><rect x="450" y="100" width="30" height="30" fill="#00ff88" stroke="#003D6B" stroke-width="0.5"/><rect x="480" y="100" width="60" height="30" fill="#0078B6" stroke="#003D6B" stroke-width="0.5"/><rect x="540" y="100" width="40" height="30" fill="#ECEFF1" stroke="#003D6B" stroke-width="0.5"/><rect x="580" y="100" width="50" height="30" fill="#00b4ff" stroke="#003D6B" stroke-width="0.5"/><rect x="630" y="100" width="30" height="30" fill="#003D6B" stroke="#003D6B" stroke-width="0.5"/><rect x="660" y="100" width="30" height="30" fill="#00ff88" stroke="#003D6B" stroke-width="0.5"/><rect x="690" y="100" width="60" height="30" fill="#0078B6" stroke="#003D6B" stroke-width="0.5"/><rect x="750" y="100" width="40" height="30" fill="#ECEFF1" stroke="#003D6B" stroke-width="0.5"/><rect x="790" y="100" width="50" height="30" fill="#00b4ff" stroke="#003D6B" stroke-width="0.5"/><rect x="840" y="100" width="30" height="30" fill="#003D6B" stroke="#003D6B" stroke-width="0.5"/><rect x="870" y="100" width="30" height="30" fill="#00ff88" stroke="#003D6B" stroke-width="0.5"/><rect x="900" y="100" width="60" height="30" fill="#0078B6" stroke="#003D6B" stroke-width="0.5"/><rect x="960" y="100" width="40" height="30" fill="#ECEFF1" stroke="#003D6B" stroke-width="0.5"/><rect x="1000" y="100" width="50" height="30" fill="#00b4ff" stroke="#003D6B" stroke-width="0.5"/><rect x="1050" y="100" width="30" height="30" fill="#003D6B" stroke="#003D6B" stroke-width="0.5"/><rect x="1080" y="100" width="30" height="30" fill="#00ff88" stroke="#003D6B" stroke-width="0.5"/><rect x="1110" y="100" width="60" height="30" fill="#0078B6" stroke="#003D6B" stroke-width="0.5"/><rect x="1170" y="100" width="40" height="30" fill="#ECEFF1" stroke="#003D6B" stroke-width="0.5"/><rect x="1210" y="100" width="50" height="30" fill="#00b4ff" stroke="#003D6B" stroke-width="0.5"/><rect x="1260" y="100" width="30" height="30" fill="#003D6B" stroke="#003D6B" stroke-width="0.5"/><rect x="1290" y="100" width="30" height="30" fill="#00ff88" stroke="#003D6B" stroke-width="0.5"/><rect x="1320" y="100" width="60" height="30" fill="#0078B6" stroke="#003D6B" stroke-width="0.5"/><rect x="1380" y="100" width="40" height="30" fill="#ECEFF1" stroke="#003D6B" stroke-width="0.5"/><rect x="1420" y="100" width="50" height="30" fill="#00b4ff" stroke="#003D6B" stroke-width="0.5"/><rect x="1470" y="100" width="30" height="30" fill="#003D6B" stroke="#003D6B" stroke-width="0.5"/><rect x="1500" y="100" width="30" height="30" fill="#00ff88" stroke="#003D6B" stroke-width="0.5"/><rect x="1530" y="100" width="60" height="30" fill="#0078B6" stroke="#003D6B" stroke-width="0.5"/><rect x="1590" y="100" width="40" height="30" fill="#ECEFF1" stroke="#003D6B" stroke-width="0.5"/><rect x="1630" y="100" width="50" height="30" fill="#00b4ff" stroke="#003D6B" stroke-width="0.5"/><rect x="1680" y="100" width="30" height="30" fill="#003D6B" stroke="#003D6B" stroke-width="0.5"/><rect x="1710" y="100" width="30" height="30" fill="#00ff88" stroke="#003D6B" stroke-width="0.5"/><text x="60" y="150" font-size="10" fill="#2C3E50">8 measurements: ~1680 ms (sequential, 5 SCPI ops × 8 cycles)</text><text x="60" y="200" font-size="13" font-weight="700" fill="#003D6B">Buffered sweep (modern)</text><rect x="60" y="220" width="60" height="30" fill="#0078B6" stroke="#003D6B"/><text x="90" y="238" font-size="9" fill="#ffffff" text-anchor="middle">Cfg/arm</text><rect x="120" y="220" width="500" height="30" fill="#00b4ff" stroke="#003D6B"/><text x="370" y="238" font-size="11" fill="#ffffff" text-anchor="middle" font-weight="700">Sensor acquires + buffers all 8 readings autonomously</text><rect x="620" y="220" width="50" height="30" fill="#00ff88" stroke="#003D6B"/><text x="645" y="238" font-size="9" fill="#003D6B" text-anchor="middle" font-weight="700">Read all</text><text x="60" y="270" font-size="10" fill="#2C3E50">8 measurements: ~210 ms (buffered, 2 SCPI ops total). 8x faster.</text><g transform="translate(60,360)" font-size="10"><rect x="0" y="0" width="14" height="12" fill="#0078B6"/><text x="20" y="10" fill="#2C3E50">Configure</text><rect x="100" y="0" width="14" height="12" fill="#ECEFF1" stroke="#003D6B"/><text x="120" y="10" fill="#2C3E50">Settle</text><rect x="180" y="0" width="14" height="12" fill="#00b4ff"/><text x="200" y="10" fill="#2C3E50">Acquire</text><rect x="270" y="0" width="14" height="12" fill="#003D6B"/><text x="290" y="10" fill="#2C3E50">Process</text><rect x="350" y="0" width="14" height="12" fill="#00ff88"/><text x="370" y="10" fill="#2C3E50">Host read</text></g></svg>
