<svg viewBox="0 0 720 440" xmlns="http://www.w3.org/2000/svg" font-family="Helvetica, Arial, sans-serif">
<rect width="720" height="440" fill="#ECEFF1"/>
<rect x="0" y="0" width="720" height="32" fill="#003D6B"/>
<text x="14" y="22" fill="#ffffff" font-size="14" font-weight="700">Figure 6.3.1 — CCDF: three reference signals on log-log axes</text>
<line x1="100" y1="360" x2="660" y2="360" stroke="#2C3E50" stroke-width="1.5"/><line x1="100" y1="60" x2="100" y2="360" stroke="#2C3E50" stroke-width="1.5"/><line x1="95" y1="360" x2="100" y2="360" stroke="#2C3E50"/><text x="90" y="364" font-size="10" fill="#2C3E50" text-anchor="end">10⁰</text><line x1="95" y1="310" x2="100" y2="310" stroke="#2C3E50"/><text x="90" y="314" font-size="10" fill="#2C3E50" text-anchor="end">10⁻²</text><line x1="95" y1="260" x2="100" y2="260" stroke="#2C3E50"/><text x="90" y="264" font-size="10" fill="#2C3E50" text-anchor="end">10⁻⁴</text><line x1="95" y1="210" x2="100" y2="210" stroke="#2C3E50"/><text x="90" y="214" font-size="10" fill="#2C3E50" text-anchor="end">10⁻⁶</text><line x1="95" y1="160" x2="100" y2="160" stroke="#2C3E50"/><text x="90" y="164" font-size="10" fill="#2C3E50" text-anchor="end">10⁻⁸</text><line x1="95" y1="110" x2="100" y2="110" stroke="#2C3E50"/><text x="90" y="114" font-size="10" fill="#2C3E50" text-anchor="end">10⁻¹⁰</text><line x1="95" y1="60" x2="100" y2="60" stroke="#2C3E50"/><text x="90" y="64" font-size="10" fill="#2C3E50" text-anchor="end">10⁻¹²</text><line x1="100" y1="360" x2="100" y2="365" stroke="#2C3E50"/><text x="100" y="378" font-size="10" fill="#2C3E50" text-anchor="middle">0</text><line x1="180" y1="360" x2="180" y2="365" stroke="#2C3E50"/><text x="180" y="378" font-size="10" fill="#2C3E50" text-anchor="middle">3</text><line x1="260" y1="360" x2="260" y2="365" stroke="#2C3E50"/><text x="260" y="378" font-size="10" fill="#2C3E50" text-anchor="middle">6</text><line x1="340" y1="360" x2="340" y2="365" stroke="#2C3E50"/><text x="340" y="378" font-size="10" fill="#2C3E50" text-anchor="middle">9</text><line x1="420" y1="360" x2="420" y2="365" stroke="#2C3E50"/><text x="420" y="378" font-size="10" fill="#2C3E50" text-anchor="middle">12</text><line x1="500" y1="360" x2="500" y2="365" stroke="#2C3E50"/><text x="500" y="378" font-size="10" fill="#2C3E50" text-anchor="middle">15</text><line x1="580" y1="360" x2="580" y2="365" stroke="#2C3E50"/><text x="580" y="378" font-size="10" fill="#2C3E50" text-anchor="middle">18</text><line x1="660" y1="360" x2="660" y2="365" stroke="#2C3E50"/><text x="660" y="378" font-size="10" fill="#2C3E50" text-anchor="middle">21</text><text x="380" y="398" font-size="11" fill="#2C3E50" text-anchor="middle">Crest factor (dB above average)</text><text x="50" y="200" font-size="11" fill="#2C3E50" transform="rotate(-90, 50, 200)" text-anchor="middle">Probability</text><polyline points="100,360 180,360 180,60" fill="none" stroke="#7fdbff" stroke-width="2.5"/><text x="190" y="80" font-size="11" fill="#7fdbff" font-weight="700">AM sine</text><text x="190" y="95" font-size="9" fill="#2C3E50">3 dB PAPR</text><polyline points="100,357 102,357 104,357 106,357 108,357 110,356 112,356 114,356 116,356 118,356 120,356 122,356 124,356 126,356 128,356 130,356 132,356 134,356 136,356 138,355 140,355 142,355 144,355 146,355 148,355 150,355 152,355 154,355 156,355 158,355 160,355 162,354 164,354 166,354 168,354 170,354 172,354 174,354 176,354 178,354 180,354 182,353 184,353 186,353 188,353 190,353 192,353 194,353 196,353 198,352 200,352 202,352 204,352 206,352 208,352 210,352 212,351 214,351 216,351 218,351 220,351 222,351 224,350 226,350 228,350 230,350 232,350 234,350 236,349 238,349 240,349 242,349 244,349 246,349 248,348 250,348 252,348 254,348 256,347 258,347 260,347 262,347 264,347 266,346 268,346 270,346 272,346 274,345 276,345 278,345 280,345 282,344 284,344 286,344 288,343 290,343 292,343 294,343 296,342 298,342 300,342 302,341 304,341 306,341 308,340 310,340 312,340 314,339 316,339 318,339 320,338 322,338 324,337 326,337 328,337 330,336 332,336 334,335 336,335 338,335 340,334 342,334 344,333 346,333 348,332 350,332 352,331 354,331 356,330 358,330 360,329 362,329 364,328 366,328 368,327 370,326 372,326 374,325 376,325 378,324 380,323 382,323 384,322 386,322 388,321 390,320 392,319 394,319 396,318 398,317 400,317 402,316 404,315 406,314 408,313 410,313 412,312 414,311 416,310 418,309 420,308 422,307 424,307 426,306 428,305 430,304 432,303 434,302 436,301 438,300 440,299 442,298 444,296 446,295 448,294 450,293 452,292 454,291 456,290 458,288 460,287 462,286 464,285 466,283 468,282 470,281 472,279 474,278 476,276 478,275 480,273 482,272 484,270 486,269 488,267 490,266 492,264 494,262 496,260 498,259 500,257" fill="none" stroke="#00b4ff" stroke-width="2.8"/><text x="380" y="160" font-size="11" fill="#00b4ff" font-weight="700">OFDM (5G NR)</text><text x="380" y="175" font-size="9" fill="#2C3E50">~15 dB at 10⁻⁸</text><polyline points="100,358 102,358 104,358 106,358 108,358 110,358 112,358 114,358 116,358 118,358 120,358 122,358 124,358 126,358 128,358 130,357 132,357 134,357 136,357 138,357 140,357 142,357 144,357 146,357 148,357 150,357 152,357 154,357 156,357 158,357 160,357 162,357 164,357 166,357 168,356 170,356 172,356 174,356 176,356 178,356 180,356 182,356 184,356 186,356 188,356 190,356 192,356 194,356 196,356 198,355 200,355 202,355 204,355 206,355 208,355 210,355 212,355 214,355 216,355 218,355 220,354 222,354 224,354 226,354 228,354 230,354 232,354 234,354 236,354 238,354 240,353 242,353 244,353 246,353 248,353 250,353 252,353 254,353 256,352 258,352 260,352 262,352 264,352 266,352 268,352 270,352 272,351 274,351 276,351 278,351 280,351 282,351 284,350 286,350 288,350 290,350 292,350 294,350 296,349 298,349 300,349 302,349 304,349 306,348 308,348 310,348 312,348 314,348 316,347 318,347 320,347 322,347 324,346 326,346 328,346 330,346 332,346 334,345 336,345 338,345 340,344 342,344 344,344 346,344 348,343 350,343 352,343 354,342 356,342 358,342 360,342 362,341 364,341 366,341 368,340 370,340 372,340 374,339 376,339 378,338 380,338 382,338 384,337 386,337 388,337 390,336 392,336 394,335 396,335 398,334 400,334 402,333 404,333 406,333 408,332 410,332 412,331 414,331 416,330 418,330 420,329 422,328 424,328 426,327 428,327 430,326 432,326 434,325 436,324 438,324 440,323 442,323 444,322 446,321 448,321 450,320 452,319 454,318 456,318 458,317 460,316 462,315 464,315 466,314 468,313 470,312 472,311 474,311 476,310 478,309 480,308 482,307 484,306 486,305 488,304 490,303 492,302 494,301 496,300 498,299 500,298 502,297 504,296 506,295 508,294 510,293 512,291 514,290 516,289 518,288 520,287 522,285 524,284 526,283 528,281 530,280 532,279 534,277 536,276 538,274 540,273 542,271 544,270 546,268 548,266 550,265 552,263 554,261 556,260 558,258 560,256 562,254 564,253 566,251 568,249 570,247 572,245 574,243 576,241 578,239 580,237 582,235 584,232 586,230 588,228 590,226 592,223 594,221 596,218 598,216 600,213 602,211 604,208 606,206 608,203 610,200 612,197 614,195 616,192 618,189 620,186 622,183 624,180 626,177 628,173 630,170 632,167 634,163 636,160 638,157 640,153 642,149 644,146 646,142 648,138 650,134 652,130 654,126 656,122 658,118 660,114" fill="none" stroke="#00ff88" stroke-width="2.6" stroke-dasharray="6,3"/><text x="540" y="120" font-size="11" fill="#00ff88" font-weight="700">White noise</text><text x="540" y="135" font-size="9" fill="#2C3E50">~17 dB at 10⁻¹²</text></svg>
