<svg viewBox="0 0 720 440" xmlns="http://www.w3.org/2000/svg" font-family="Helvetica, Arial, sans-serif">
<rect width="720" height="440" fill="#ECEFF1"/>
<rect x="0" y="0" width="720" height="32" fill="#003D6B"/>
<text x="14" y="22" fill="#ffffff" font-size="14" font-weight="700">Figure 7.1.5 — Sensor dynamic range vs duty cycle</text>
<line x1="90" y1="360" x2="660" y2="360" stroke="#2C3E50" stroke-width="1.5"/><line x1="90" y1="60" x2="90" y2="360" stroke="#2C3E50" stroke-width="1.5"/><line x1="85" y1="60" x2="90" y2="60" stroke="#2C3E50"/><text x="80" y="64" font-size="10" fill="#2C3E50" text-anchor="end">+50</text><line x1="85" y1="110" x2="90" y2="110" stroke="#2C3E50"/><text x="80" y="114" font-size="10" fill="#2C3E50" text-anchor="end">+30</text><line x1="85" y1="160" x2="90" y2="160" stroke="#2C3E50"/><text x="80" y="164" font-size="10" fill="#2C3E50" text-anchor="end">+10</text><line x1="85" y1="210" x2="90" y2="210" stroke="#2C3E50"/><text x="80" y="214" font-size="10" fill="#2C3E50" text-anchor="end">-10</text><line x1="85" y1="260" x2="90" y2="260" stroke="#2C3E50"/><text x="80" y="264" font-size="10" fill="#2C3E50" text-anchor="end">-30</text><line x1="85" y1="310" x2="90" y2="310" stroke="#2C3E50"/><text x="80" y="314" font-size="10" fill="#2C3E50" text-anchor="end">-50</text><line x1="85" y1="360" x2="90" y2="360" stroke="#2C3E50"/><text x="80" y="364" font-size="10" fill="#2C3E50" text-anchor="end">-70</text><text x="50" y="200" font-size="11" fill="#2C3E50" transform="rotate(-90, 50, 200)" text-anchor="middle">Pulse power (dBm)</text><line x1="90" y1="360" x2="90" y2="365" stroke="#2C3E50"/><text x="90" y="378" font-size="9" fill="#2C3E50" text-anchor="middle">100%</text><line x1="185" y1="360" x2="185" y2="365" stroke="#2C3E50"/><text x="185" y="378" font-size="9" fill="#2C3E50" text-anchor="middle">10%</text><line x1="280" y1="360" x2="280" y2="365" stroke="#2C3E50"/><text x="280" y="378" font-size="9" fill="#2C3E50" text-anchor="middle">1%</text><line x1="375" y1="360" x2="375" y2="365" stroke="#2C3E50"/><text x="375" y="378" font-size="9" fill="#2C3E50" text-anchor="middle">0.1%</text><line x1="470" y1="360" x2="470" y2="365" stroke="#2C3E50"/><text x="470" y="378" font-size="9" fill="#2C3E50" text-anchor="middle">0.01%</text><line x1="565" y1="360" x2="565" y2="365" stroke="#2C3E50"/><text x="565" y="378" font-size="9" fill="#2C3E50" text-anchor="middle">0.001%</text><line x1="660" y1="360" x2="660" y2="365" stroke="#2C3E50"/><text x="660" y="378" font-size="9" fill="#2C3E50" text-anchor="middle">0.0001%</text><text x="380" y="398" font-size="11" fill="#2C3E50" text-anchor="middle">Duty cycle</text><polygon points="90,135 95,134 100,132 105,131 110,130 115,128 120,127 125,126 130,124 135,123 140,122 145,121 150,119 155,118 160,117 165,115 170,114 175,113 180,111 185,110 190,109 195,107 200,106 205,105 210,103 215,102 220,101 225,99 230,98 235,97 240,96 245,94 250,93 255,92 260,90 265,89 270,88 275,86 280,85 285,85 290,85 295,85 300,85 305,85 310,85 315,85 320,85 325,85 330,85 335,85 340,85 345,85 350,85 355,85 360,85 365,85 370,85 375,85 380,85 385,85 390,85 395,85 400,85 405,85 410,85 415,85 420,85 425,85 430,85 435,85 440,85 445,85 450,85 455,85 460,85 465,85 470,85 475,85 480,85 485,85 490,85 495,85 500,85 505,85 510,85 515,85 520,85 525,85 530,85 535,85 540,85 545,85 550,85 555,85 560,85 565,85 570,85 575,85 580,85 585,85 590,85 595,85 600,85 605,85 610,85 615,85 620,85 625,85 630,85 635,85 640,85 645,85 650,85 655,85 660,85 665,85 670,85 675,85 680,85 685,85 690,85 690,90 685,91 680,92 675,94 670,95 665,96 660,98 655,99 650,100 645,101 640,103 635,104 630,105 625,107 620,108 615,109 610,111 605,112 600,113 595,115 590,116 585,117 580,119 575,120 570,121 565,122 560,124 555,125 550,126 545,128 540,129 535,130 530,132 525,133 520,134 515,136 510,137 505,138 500,140 495,141 490,142 485,144 480,145 475,146 470,148 465,149 460,150 455,151 450,153 445,154 440,155 435,157 430,158 425,159 420,161 415,162 410,163 405,165 400,166 395,167 390,169 385,170 380,171 375,172 370,174 365,175 360,176 355,178 350,179 345,180 340,182 335,183 330,184 325,186 320,187 315,188 310,190 305,191 300,192 295,194 290,195 285,196 280,198 275,199 270,200 265,201 260,203 255,204 250,205 245,207 240,208 235,209 230,211 225,212 220,213 215,215 210,216 205,217 200,219 195,220 190,221 185,222 180,224 175,225 170,226 165,228 160,229 155,230 150,232 145,233 140,234 135,236 130,237 125,238 120,240 115,241 110,242 105,244 100,245 95,246 90,248" fill="#0078B6" opacity="0.30" stroke="#0078B6" stroke-width="2"/><polygon points="90,135 95,134 100,132 105,131 110,130 115,128 120,127 125,126 130,124 135,123 140,122 145,121 150,119 155,118 160,117 165,115 170,114 175,113 180,111 185,110 190,109 195,107 200,106 205,105 210,103 215,102 220,101 225,99 230,98 235,98 240,98 245,98 250,98 255,98 260,98 265,98 270,98 275,98 280,98 285,98 290,98 295,98 300,98 305,98 310,98 315,98 320,98 325,98 330,98 335,98 340,98 345,98 350,98 355,98 360,98 365,98 370,98 375,98 380,98 385,98 390,98 395,98 400,98 405,98 410,98 415,98 420,98 425,98 430,98 435,98 440,98 445,98 450,98 455,98 460,98 465,98 470,98 475,98 480,98 485,98 490,98 495,98 500,98 505,98 510,98 515,98 520,98 525,98 530,98 535,98 540,98 545,98 550,98 555,98 560,98 565,98 570,98 575,98 580,98 585,98 590,98 590,216 585,217 580,219 575,220 570,221 565,222 560,224 555,225 550,226 545,228 540,229 535,230 530,232 525,233 520,234 515,236 510,237 505,238 500,240 495,241 490,242 485,244 480,245 475,246 470,248 465,249 460,250 455,251 450,253 445,254 440,255 435,257 430,258 425,259 420,261 415,262 410,263 405,265 400,266 395,267 390,269 385,270 380,271 375,272 370,274 365,275 360,276 355,278 350,279 345,280 340,282 335,283 330,284 325,286 320,287 315,288 310,290 305,291 300,292 295,294 290,295 285,296 280,298 275,299 270,300 265,301 260,303 255,304 250,305 245,307 240,308 235,309 230,311 225,312 220,313 215,315 210,316 205,317 200,319 195,320 190,321 185,322 180,324 175,325 170,326 165,328 160,329 155,330 150,332 145,333 140,334 135,336 130,337 125,338 120,340 115,341 110,342 105,344 100,345 95,346 90,348" fill="#7fdbff" opacity="0.40" stroke="#003D6B" stroke-width="1.5" stroke-dasharray="4,2"/><polygon points="90,110 95,110 100,110 105,110 110,110 115,110 120,110 125,110 130,110 135,110 140,110 145,110 150,110 155,110 160,110 165,110 170,110 175,110 180,110 185,110 190,110 195,110 200,110 205,110 210,110 215,110 220,110 225,110 230,110 235,110 240,110 245,110 250,110 255,110 260,110 265,110 270,110 275,110 280,110 285,110 290,110 295,110 300,110 305,110 310,110 315,110 320,110 325,110 330,110 335,110 340,110 345,110 350,110 355,110 360,110 365,110 370,110 375,110 380,110 385,110 390,110 395,110 400,110 405,110 410,110 415,110 420,110 425,110 430,110 435,110 440,110 445,110 450,110 455,110 460,110 465,110 470,110 475,110 480,110 485,110 490,110 495,110 500,110 505,110 510,110 515,110 520,110 525,110 530,110 535,110 540,110 545,110 550,110 555,110 560,110 565,110 570,110 575,110 580,110 585,110 590,110 595,110 600,110 605,110 610,110 615,110 620,110 625,110 630,110 635,110 640,110 645,110 650,110 655,110 660,110 665,110 670,110 675,110 680,110 685,110 690,110 690,310 685,310 680,310 675,310 670,310 665,310 660,310 655,310 650,310 645,310 640,310 635,310 630,310 625,310 620,310 615,310 610,310 605,310 600,310 595,310 590,310 585,310 580,310 575,310 570,310 565,310 560,310 555,310 550,310 545,310 540,310 535,310 530,310 525,310 520,310 515,310 510,310 505,310 500,310 495,310 490,310 485,310 480,310 475,310 470,310 465,310 460,310 455,310 450,310 445,310 440,310 435,310 430,310 425,310 420,310 415,310 410,310 405,310 400,310 395,310 390,310 385,310 380,310 375,310 370,310 365,310 360,310 355,310 350,310 345,310 340,310 335,310 330,310 325,310 320,310 315,310 310,310 305,310 300,310 295,310 290,310 285,310 280,310 275,310 270,310 265,310 260,310 255,310 250,310 245,310 240,310 235,310 230,310 225,310 220,310 215,310 210,310 205,310 200,310 195,310 190,310 185,310 180,310 175,310 170,310 165,310 160,310 155,310 150,310 145,310 140,310 135,310 130,310 125,310 120,310 115,310 110,310 105,310 100,310 95,310 90,310" fill="#00ff88" opacity="0.20" stroke="#00ff88" stroke-width="2.5"/><g transform="translate(110,75)" font-size="10"><rect x="0" y="0" width="14" height="10" fill="#0078B6" opacity="0.5"/><text x="20" y="9" fill="#003D6B">Thermal sensor</text><rect x="120" y="0" width="14" height="10" fill="#7fdbff" opacity="0.6"/><text x="140" y="9" fill="#003D6B">Diode sensor</text><rect x="240" y="0" width="14" height="10" fill="#00ff88" opacity="0.4"/><text x="260" y="9" fill="#003D6B">Peak sensor (12100 / 12200)</text></g></svg>
