<svg xmlns="http://www.w3.org/2000/svg" viewBox="0 0 1000 480" width="1000" height="480" role="img" aria-label="Berkeley Nucleonics global representative network world map">
<defs>
<radialGradient id="markerGlow" cx="50%" cy="50%" r="50%"><stop offset="0%" stop-color="#5fd0ff" stop-opacity="0.9"/><stop offset="35%" stop-color="#5fd0ff" stop-opacity="0.35"/><stop offset="100%" stop-color="#5fd0ff" stop-opacity="0"/></radialGradient>
<radialGradient id="clusterGlow" cx="50%" cy="50%" r="50%"><stop offset="0%" stop-color="#5fd0ff" stop-opacity="0.10"/><stop offset="100%" stop-color="#5fd0ff" stop-opacity="0"/></radialGradient>
<filter id="soft" x="-50%" y="-50%" width="200%" height="200%"><feGaussianBlur stdDeviation="1.4"/></filter>
</defs>
<g>
<circle cx="236.1" cy="120.0" r="120" fill="url(#clusterGlow)"/>
<circle cx="527.8" cy="106.7" r="120" fill="url(#clusterGlow)"/>
<circle cx="625.0" cy="160.0" r="120" fill="url(#clusterGlow)"/>
<circle cx="847.2" cy="146.7" r="120" fill="url(#clusterGlow)"/>
</g>
<g fill="#bce8ff" fill-opacity="0.55">
<circle cx="48" cy="60" r="1.6"/>
<circle cx="48" cy="72" r="1.6"/>
<circle cx="60" cy="60" r="1.6"/>
<circle cx="60" cy="72" r="1.6"/>
<circle cx="72" cy="60" r="1.6"/>
<circle cx="72" cy="72" r="1.6"/>
<circle cx="72" cy="84" r="1.6"/>
<circle cx="84" cy="60" r="1.6"/>
<circle cx="84" cy="72" r="1.6"/>
<circle cx="96" cy="60" r="1.6"/>
<circle cx="96" cy="72" r="1.6"/>
<circle cx="108" cy="60" r="1.6"/>
<circle cx="108" cy="72" r="1.6"/>
<circle cx="120" cy="60" r="1.6"/>
<circle cx="120" cy="72" r="1.6"/>
<circle cx="120" cy="84" r="1.6"/>
<circle cx="132" cy="60" r="1.6"/>
<circle cx="132" cy="72" r="1.6"/>
<circle cx="132" cy="84" r="1.6"/>
<circle cx="144" cy="60" r="1.6"/>
<circle cx="144" cy="72" r="1.6"/>
<circle cx="144" cy="84" r="1.6"/>
<circle cx="144" cy="96" r="1.6"/>
<circle cx="156" cy="60" r="1.6"/>
<circle cx="156" cy="72" r="1.6"/>
<circle cx="156" cy="84" r="1.6"/>
<circle cx="156" cy="96" r="1.6"/>
<circle cx="156" cy="108" r="1.6"/>
<circle cx="168" cy="48" r="1.6"/>
<circle cx="168" cy="60" r="1.6"/>
<circle cx="168" cy="72" r="1.6"/>
<circle cx="168" cy="84" r="1.6"/>
<circle cx="168" cy="96" r="1.6"/>
<circle cx="168" cy="108" r="1.6"/>
<circle cx="168" cy="120" r="1.6"/>
<circle cx="168" cy="132" r="1.6"/>
<circle cx="168" cy="144" r="1.6"/>
<circle cx="180" cy="48" r="1.6"/>
<circle cx="180" cy="60" r="1.6"/>
<circle cx="180" cy="72" r="1.6"/>
<circle cx="180" cy="84" r="1.6"/>
<circle cx="180" cy="96" r="1.6"/>
<circle cx="180" cy="108" r="1.6"/>
<circle cx="180" cy="120" r="1.6"/>
<circle cx="180" cy="132" r="1.6"/>
<circle cx="180" cy="144" r="1.6"/>
<circle cx="180" cy="156" r="1.6"/>
<circle cx="192" cy="48" r="1.6"/>
<circle cx="192" cy="60" r="1.6"/>
<circle cx="192" cy="72" r="1.6"/>
<circle cx="192" cy="84" r="1.6"/>
<circle cx="192" cy="96" r="1.6"/>
<circle cx="192" cy="108" r="1.6"/>
<circle cx="192" cy="120" r="1.6"/>
<circle cx="192" cy="132" r="1.6"/>
<circle cx="192" cy="144" r="1.6"/>
<circle cx="192" cy="156" r="1.6"/>
<circle cx="192" cy="168" r="1.6"/>
<circle cx="204" cy="48" r="1.6"/>
<circle cx="204" cy="60" r="1.6"/>
<circle cx="204" cy="72" r="1.6"/>
<circle cx="204" cy="84" r="1.6"/>
<circle cx="204" cy="96" r="1.6"/>
<circle cx="204" cy="108" r="1.6"/>
<circle cx="204" cy="120" r="1.6"/>
<circle cx="204" cy="132" r="1.6"/>
<circle cx="204" cy="144" r="1.6"/>
<circle cx="204" cy="156" r="1.6"/>
<circle cx="204" cy="168" r="1.6"/>
<circle cx="204" cy="180" r="1.6"/>
<circle cx="216" cy="48" r="1.6"/>
<circle cx="216" cy="60" r="1.6"/>
<circle cx="216" cy="72" r="1.6"/>
<circle cx="216" cy="84" r="1.6"/>
<circle cx="216" cy="96" r="1.6"/>
<circle cx="216" cy="108" r="1.6"/>
<circle cx="216" cy="120" r="1.6"/>
<circle cx="216" cy="132" r="1.6"/>
<circle cx="216" cy="144" r="1.6"/>
<circle cx="216" cy="156" r="1.6"/>
<circle cx="216" cy="168" r="1.6"/>
<circle cx="228" cy="48" r="1.6"/>
<circle cx="228" cy="60" r="1.6"/>
<circle cx="228" cy="72" r="1.6"/>
<circle cx="228" cy="84" r="1.6"/>
<circle cx="228" cy="96" r="1.6"/>
<circle cx="228" cy="108" r="1.6"/>
<circle cx="228" cy="120" r="1.6"/>
<circle cx="228" cy="132" r="1.6"/>
<circle cx="228" cy="144" r="1.6"/>
<circle cx="228" cy="156" r="1.6"/>
<circle cx="228" cy="168" r="1.6"/>
<circle cx="240" cy="48" r="1.6"/>
<circle cx="240" cy="60" r="1.6"/>
<circle cx="240" cy="72" r="1.6"/>
<circle cx="240" cy="84" r="1.6"/>
<circle cx="240" cy="96" r="1.6"/>
<circle cx="240" cy="108" r="1.6"/>
<circle cx="240" cy="120" r="1.6"/>
<circle cx="240" cy="132" r="1.6"/>
<circle cx="240" cy="144" r="1.6"/>
<circle cx="240" cy="156" r="1.6"/>
<circle cx="252" cy="48" r="1.6"/>
<circle cx="252" cy="60" r="1.6"/>
<circle cx="252" cy="72" r="1.6"/>
<circle cx="252" cy="84" r="1.6"/>
<circle cx="252" cy="96" r="1.6"/>
<circle cx="252" cy="108" r="1.6"/>
<circle cx="252" cy="120" r="1.6"/>
<circle cx="252" cy="132" r="1.6"/>
<circle cx="252" cy="144" r="1.6"/>
<circle cx="252" cy="156" r="1.6"/>
<circle cx="264" cy="48" r="1.6"/>
<circle cx="264" cy="60" r="1.6"/>
<circle cx="264" cy="72" r="1.6"/>
<circle cx="264" cy="84" r="1.6"/>
<circle cx="264" cy="96" r="1.6"/>
<circle cx="264" cy="108" r="1.6"/>
<circle cx="264" cy="120" r="1.6"/>
<circle cx="264" cy="132" r="1.6"/>
<circle cx="264" cy="144" r="1.6"/>
<circle cx="264" cy="156" r="1.6"/>
<circle cx="264" cy="168" r="1.6"/>
<circle cx="264" cy="204" r="1.6"/>
<circle cx="276" cy="48" r="1.6"/>
<circle cx="276" cy="60" r="1.6"/>
<circle cx="276" cy="72" r="1.6"/>
<circle cx="276" cy="84" r="1.6"/>
<circle cx="276" cy="96" r="1.6"/>
<circle cx="276" cy="108" r="1.6"/>
<circle cx="276" cy="120" r="1.6"/>
<circle cx="276" cy="132" r="1.6"/>
<circle cx="276" cy="144" r="1.6"/>
<circle cx="276" cy="156" r="1.6"/>
<circle cx="276" cy="216" r="1.6"/>
<circle cx="276" cy="252" r="1.6"/>
<circle cx="288" cy="48" r="1.6"/>
<circle cx="288" cy="60" r="1.6"/>
<circle cx="288" cy="72" r="1.6"/>
<circle cx="288" cy="84" r="1.6"/>
<circle cx="288" cy="96" r="1.6"/>
<circle cx="288" cy="108" r="1.6"/>
<circle cx="288" cy="120" r="1.6"/>
<circle cx="288" cy="132" r="1.6"/>
<circle cx="288" cy="228" r="1.6"/>
<circle cx="288" cy="240" r="1.6"/>
<circle cx="288" cy="252" r="1.6"/>
<circle cx="288" cy="264" r="1.6"/>
<circle cx="300" cy="60" r="1.6"/>
<circle cx="300" cy="72" r="1.6"/>
<circle cx="300" cy="84" r="1.6"/>
<circle cx="300" cy="96" r="1.6"/>
<circle cx="300" cy="108" r="1.6"/>
<circle cx="300" cy="120" r="1.6"/>
<circle cx="300" cy="132" r="1.6"/>
<circle cx="300" cy="216" r="1.6"/>
<circle cx="300" cy="228" r="1.6"/>
<circle cx="300" cy="240" r="1.6"/>
<circle cx="300" cy="252" r="1.6"/>
<circle cx="300" cy="264" r="1.6"/>
<circle cx="300" cy="276" r="1.6"/>
<circle cx="300" cy="360" r="1.6"/>
<circle cx="300" cy="372" r="1.6"/>
<circle cx="312" cy="60" r="1.6"/>
<circle cx="312" cy="72" r="1.6"/>
<circle cx="312" cy="84" r="1.6"/>
<circle cx="312" cy="96" r="1.6"/>
<circle cx="312" cy="108" r="1.6"/>
<circle cx="312" cy="120" r="1.6"/>
<circle cx="312" cy="216" r="1.6"/>
<circle cx="312" cy="228" r="1.6"/>
<circle cx="312" cy="240" r="1.6"/>
<circle cx="312" cy="252" r="1.6"/>
<circle cx="312" cy="264" r="1.6"/>
<circle cx="312" cy="276" r="1.6"/>
<circle cx="312" cy="288" r="1.6"/>
<circle cx="312" cy="300" r="1.6"/>
<circle cx="312" cy="312" r="1.6"/>
<circle cx="312" cy="324" r="1.6"/>
<circle cx="312" cy="336" r="1.6"/>
<circle cx="312" cy="348" r="1.6"/>
<circle cx="312" cy="360" r="1.6"/>
<circle cx="324" cy="60" r="1.6"/>
<circle cx="324" cy="72" r="1.6"/>
<circle cx="324" cy="84" r="1.6"/>
<circle cx="324" cy="96" r="1.6"/>
<circle cx="324" cy="108" r="1.6"/>
<circle cx="324" cy="216" r="1.6"/>
<circle cx="324" cy="228" r="1.6"/>
<circle cx="324" cy="240" r="1.6"/>
<circle cx="324" cy="252" r="1.6"/>
<circle cx="324" cy="264" r="1.6"/>
<circle cx="324" cy="276" r="1.6"/>
<circle cx="324" cy="288" r="1.6"/>
<circle cx="324" cy="300" r="1.6"/>
<circle cx="324" cy="312" r="1.6"/>
<circle cx="324" cy="324" r="1.6"/>
<circle cx="324" cy="336" r="1.6"/>
<circle cx="324" cy="348" r="1.6"/>
<circle cx="336" cy="72" r="1.6"/>
<circle cx="336" cy="84" r="1.6"/>
<circle cx="336" cy="96" r="1.6"/>
<circle cx="336" cy="108" r="1.6"/>
<circle cx="336" cy="228" r="1.6"/>
<circle cx="336" cy="240" r="1.6"/>
<circle cx="336" cy="252" r="1.6"/>
<circle cx="336" cy="264" r="1.6"/>
<circle cx="336" cy="276" r="1.6"/>
<circle cx="336" cy="288" r="1.6"/>
<circle cx="336" cy="300" r="1.6"/>
<circle cx="336" cy="312" r="1.6"/>
<circle cx="336" cy="324" r="1.6"/>
<circle cx="348" cy="240" r="1.6"/>
<circle cx="348" cy="252" r="1.6"/>
<circle cx="348" cy="264" r="1.6"/>
<circle cx="348" cy="276" r="1.6"/>
<circle cx="348" cy="288" r="1.6"/>
<circle cx="348" cy="300" r="1.6"/>
<circle cx="348" cy="312" r="1.6"/>
<circle cx="360" cy="240" r="1.6"/>
<circle cx="360" cy="252" r="1.6"/>
<circle cx="360" cy="264" r="1.6"/>
<circle cx="360" cy="276" r="1.6"/>
<circle cx="360" cy="288" r="1.6"/>
<circle cx="360" cy="300" r="1.6"/>
<circle cx="360" cy="312" r="1.6"/>
<circle cx="372" cy="252" r="1.6"/>
<circle cx="372" cy="264" r="1.6"/>
<circle cx="372" cy="276" r="1.6"/>
<circle cx="372" cy="288" r="1.6"/>
<circle cx="372" cy="300" r="1.6"/>
<circle cx="384" cy="264" r="1.6"/>
<circle cx="384" cy="276" r="1.6"/>
<circle cx="384" cy="288" r="1.6"/>
<circle cx="384" cy="300" r="1.6"/>
<circle cx="456" cy="192" r="1.6"/>
<circle cx="456" cy="204" r="1.6"/>
<circle cx="468" cy="168" r="1.6"/>
<circle cx="468" cy="180" r="1.6"/>
<circle cx="468" cy="192" r="1.6"/>
<circle cx="468" cy="204" r="1.6"/>
<circle cx="468" cy="216" r="1.6"/>
<circle cx="480" cy="96" r="1.6"/>
<circle cx="480" cy="108" r="1.6"/>
<circle cx="480" cy="120" r="1.6"/>
<circle cx="480" cy="132" r="1.6"/>
<circle cx="480" cy="168" r="1.6"/>
<circle cx="480" cy="180" r="1.6"/>
<circle cx="480" cy="192" r="1.6"/>
<circle cx="480" cy="204" r="1.6"/>
<circle cx="480" cy="216" r="1.6"/>
<circle cx="492" cy="96" r="1.6"/>
<circle cx="492" cy="108" r="1.6"/>
<circle cx="492" cy="120" r="1.6"/>
<circle cx="492" cy="132" r="1.6"/>
<circle cx="492" cy="156" r="1.6"/>
<circle cx="492" cy="168" r="1.6"/>
<circle cx="492" cy="180" r="1.6"/>
<circle cx="492" cy="192" r="1.6"/>
<circle cx="492" cy="204" r="1.6"/>
<circle cx="492" cy="216" r="1.6"/>
<circle cx="504" cy="108" r="1.6"/>
<circle cx="504" cy="120" r="1.6"/>
<circle cx="504" cy="132" r="1.6"/>
<circle cx="504" cy="156" r="1.6"/>
<circle cx="504" cy="168" r="1.6"/>
<circle cx="504" cy="180" r="1.6"/>
<circle cx="504" cy="192" r="1.6"/>
<circle cx="504" cy="204" r="1.6"/>
<circle cx="504" cy="216" r="1.6"/>
<circle cx="516" cy="96" r="1.6"/>
<circle cx="516" cy="108" r="1.6"/>
<circle cx="516" cy="120" r="1.6"/>
<circle cx="516" cy="156" r="1.6"/>
<circle cx="516" cy="168" r="1.6"/>
<circle cx="516" cy="180" r="1.6"/>
<circle cx="516" cy="192" r="1.6"/>
<circle cx="516" cy="204" r="1.6"/>
<circle cx="516" cy="216" r="1.6"/>
<circle cx="516" cy="228" r="1.6"/>
<circle cx="528" cy="72" r="1.6"/>
<circle cx="528" cy="84" r="1.6"/>
<circle cx="528" cy="96" r="1.6"/>
<circle cx="528" cy="108" r="1.6"/>
<circle cx="528" cy="120" r="1.6"/>
<circle cx="528" cy="156" r="1.6"/>
<circle cx="528" cy="168" r="1.6"/>
<circle cx="528" cy="180" r="1.6"/>
<circle cx="528" cy="192" r="1.6"/>
<circle cx="528" cy="204" r="1.6"/>
<circle cx="528" cy="216" r="1.6"/>
<circle cx="528" cy="228" r="1.6"/>
<circle cx="528" cy="240" r="1.6"/>
<circle cx="540" cy="72" r="1.6"/>
<circle cx="540" cy="84" r="1.6"/>
<circle cx="540" cy="96" r="1.6"/>
<circle cx="540" cy="108" r="1.6"/>
<circle cx="540" cy="120" r="1.6"/>
<circle cx="540" cy="156" r="1.6"/>
<circle cx="540" cy="168" r="1.6"/>
<circle cx="540" cy="180" r="1.6"/>
<circle cx="540" cy="192" r="1.6"/>
<circle cx="540" cy="204" r="1.6"/>
<circle cx="540" cy="216" r="1.6"/>
<circle cx="540" cy="228" r="1.6"/>
<circle cx="540" cy="240" r="1.6"/>
<circle cx="540" cy="252" r="1.6"/>
<circle cx="540" cy="264" r="1.6"/>
<circle cx="540" cy="276" r="1.6"/>
<circle cx="540" cy="288" r="1.6"/>
<circle cx="552" cy="60" r="1.6"/>
<circle cx="552" cy="72" r="1.6"/>
<circle cx="552" cy="84" r="1.6"/>
<circle cx="552" cy="96" r="1.6"/>
<circle cx="552" cy="108" r="1.6"/>
<circle cx="552" cy="120" r="1.6"/>
<circle cx="552" cy="132" r="1.6"/>
<circle cx="552" cy="156" r="1.6"/>
<circle cx="552" cy="168" r="1.6"/>
<circle cx="552" cy="180" r="1.6"/>
<circle cx="552" cy="192" r="1.6"/>
<circle cx="552" cy="204" r="1.6"/>
<circle cx="552" cy="216" r="1.6"/>
<circle cx="552" cy="228" r="1.6"/>
<circle cx="552" cy="240" r="1.6"/>
<circle cx="552" cy="252" r="1.6"/>
<circle cx="552" cy="264" r="1.6"/>
<circle cx="552" cy="276" r="1.6"/>
<circle cx="552" cy="288" r="1.6"/>
<circle cx="552" cy="300" r="1.6"/>
<circle cx="552" cy="312" r="1.6"/>
<circle cx="564" cy="72" r="1.6"/>
<circle cx="564" cy="84" r="1.6"/>
<circle cx="564" cy="96" r="1.6"/>
<circle cx="564" cy="108" r="1.6"/>
<circle cx="564" cy="120" r="1.6"/>
<circle cx="564" cy="132" r="1.6"/>
<circle cx="564" cy="156" r="1.6"/>
<circle cx="564" cy="168" r="1.6"/>
<circle cx="564" cy="180" r="1.6"/>
<circle cx="564" cy="192" r="1.6"/>
<circle cx="564" cy="204" r="1.6"/>
<circle cx="564" cy="216" r="1.6"/>
<circle cx="564" cy="228" r="1.6"/>
<circle cx="564" cy="240" r="1.6"/>
<circle cx="564" cy="252" r="1.6"/>
<circle cx="564" cy="264" r="1.6"/>
<circle cx="564" cy="276" r="1.6"/>
<circle cx="564" cy="288" r="1.6"/>
<circle cx="564" cy="300" r="1.6"/>
<circle cx="564" cy="312" r="1.6"/>
<circle cx="564" cy="324" r="1.6"/>
<circle cx="576" cy="84" r="1.6"/>
<circle cx="576" cy="96" r="1.6"/>
<circle cx="576" cy="108" r="1.6"/>
<circle cx="576" cy="120" r="1.6"/>
<circle cx="576" cy="168" r="1.6"/>
<circle cx="576" cy="180" r="1.6"/>
<circle cx="576" cy="192" r="1.6"/>
<circle cx="576" cy="204" r="1.6"/>
<circle cx="576" cy="216" r="1.6"/>
<circle cx="576" cy="228" r="1.6"/>
<circle cx="576" cy="240" r="1.6"/>
<circle cx="576" cy="252" r="1.6"/>
<circle cx="576" cy="264" r="1.6"/>
<circle cx="576" cy="276" r="1.6"/>
<circle cx="576" cy="288" r="1.6"/>
<circle cx="576" cy="300" r="1.6"/>
<circle cx="576" cy="312" r="1.6"/>
<circle cx="576" cy="324" r="1.6"/>
<circle cx="588" cy="84" r="1.6"/>
<circle cx="588" cy="96" r="1.6"/>
<circle cx="588" cy="108" r="1.6"/>
<circle cx="588" cy="168" r="1.6"/>
<circle cx="588" cy="180" r="1.6"/>
<circle cx="588" cy="192" r="1.6"/>
<circle cx="588" cy="204" r="1.6"/>
<circle cx="588" cy="216" r="1.6"/>
<circle cx="588" cy="228" r="1.6"/>
<circle cx="588" cy="240" r="1.6"/>
<circle cx="588" cy="252" r="1.6"/>
<circle cx="588" cy="264" r="1.6"/>
<circle cx="588" cy="276" r="1.6"/>
<circle cx="588" cy="288" r="1.6"/>
<circle cx="588" cy="300" r="1.6"/>
<circle cx="600" cy="96" r="1.6"/>
<circle cx="600" cy="108" r="1.6"/>
<circle cx="600" cy="192" r="1.6"/>
<circle cx="600" cy="204" r="1.6"/>
<circle cx="600" cy="216" r="1.6"/>
<circle cx="600" cy="228" r="1.6"/>
<circle cx="600" cy="240" r="1.6"/>
<circle cx="600" cy="252" r="1.6"/>
<circle cx="600" cy="264" r="1.6"/>
<circle cx="600" cy="276" r="1.6"/>
<circle cx="600" cy="288" r="1.6"/>
<circle cx="612" cy="96" r="1.6"/>
<circle cx="612" cy="108" r="1.6"/>
<circle cx="612" cy="120" r="1.6"/>
<circle cx="612" cy="204" r="1.6"/>
<circle cx="612" cy="216" r="1.6"/>
<circle cx="612" cy="228" r="1.6"/>
<circle cx="612" cy="240" r="1.6"/>
<circle cx="612" cy="252" r="1.6"/>
<circle cx="612" cy="264" r="1.6"/>
<circle cx="624" cy="96" r="1.6"/>
<circle cx="624" cy="108" r="1.6"/>
<circle cx="624" cy="120" r="1.6"/>
<circle cx="624" cy="132" r="1.6"/>
<circle cx="624" cy="216" r="1.6"/>
<circle cx="624" cy="228" r="1.6"/>
<circle cx="636" cy="96" r="1.6"/>
<circle cx="636" cy="108" r="1.6"/>
<circle cx="636" cy="120" r="1.6"/>
<circle cx="636" cy="132" r="1.6"/>
<circle cx="636" cy="144" r="1.6"/>
<circle cx="636" cy="216" r="1.6"/>
<circle cx="648" cy="96" r="1.6"/>
<circle cx="648" cy="108" r="1.6"/>
<circle cx="648" cy="120" r="1.6"/>
<circle cx="648" cy="132" r="1.6"/>
<circle cx="648" cy="144" r="1.6"/>
<circle cx="648" cy="156" r="1.6"/>
<circle cx="660" cy="96" r="1.6"/>
<circle cx="660" cy="108" r="1.6"/>
<circle cx="660" cy="120" r="1.6"/>
<circle cx="660" cy="132" r="1.6"/>
<circle cx="660" cy="144" r="1.6"/>
<circle cx="660" cy="156" r="1.6"/>
<circle cx="672" cy="96" r="1.6"/>
<circle cx="672" cy="108" r="1.6"/>
<circle cx="672" cy="120" r="1.6"/>
<circle cx="672" cy="132" r="1.6"/>
<circle cx="672" cy="144" r="1.6"/>
<circle cx="672" cy="156" r="1.6"/>
<circle cx="672" cy="168" r="1.6"/>
<circle cx="684" cy="84" r="1.6"/>
<circle cx="684" cy="96" r="1.6"/>
<circle cx="684" cy="108" r="1.6"/>
<circle cx="684" cy="120" r="1.6"/>
<circle cx="684" cy="132" r="1.6"/>
<circle cx="684" cy="144" r="1.6"/>
<circle cx="684" cy="156" r="1.6"/>
<circle cx="684" cy="168" r="1.6"/>
<circle cx="696" cy="84" r="1.6"/>
<circle cx="696" cy="96" r="1.6"/>
<circle cx="696" cy="108" r="1.6"/>
<circle cx="696" cy="120" r="1.6"/>
<circle cx="696" cy="132" r="1.6"/>
<circle cx="696" cy="144" r="1.6"/>
<circle cx="696" cy="156" r="1.6"/>
<circle cx="696" cy="168" r="1.6"/>
<circle cx="696" cy="180" r="1.6"/>
<circle cx="708" cy="84" r="1.6"/>
<circle cx="708" cy="96" r="1.6"/>
<circle cx="708" cy="108" r="1.6"/>
<circle cx="708" cy="120" r="1.6"/>
<circle cx="708" cy="132" r="1.6"/>
<circle cx="708" cy="144" r="1.6"/>
<circle cx="708" cy="156" r="1.6"/>
<circle cx="708" cy="168" r="1.6"/>
<circle cx="708" cy="180" r="1.6"/>
<circle cx="708" cy="192" r="1.6"/>
<circle cx="720" cy="84" r="1.6"/>
<circle cx="720" cy="96" r="1.6"/>
<circle cx="720" cy="108" r="1.6"/>
<circle cx="720" cy="120" r="1.6"/>
<circle cx="720" cy="132" r="1.6"/>
<circle cx="720" cy="144" r="1.6"/>
<circle cx="720" cy="156" r="1.6"/>
<circle cx="720" cy="168" r="1.6"/>
<circle cx="720" cy="180" r="1.6"/>
<circle cx="720" cy="192" r="1.6"/>
<circle cx="720" cy="204" r="1.6"/>
<circle cx="732" cy="84" r="1.6"/>
<circle cx="732" cy="96" r="1.6"/>
<circle cx="732" cy="108" r="1.6"/>
<circle cx="732" cy="120" r="1.6"/>
<circle cx="732" cy="132" r="1.6"/>
<circle cx="732" cy="144" r="1.6"/>
<circle cx="732" cy="156" r="1.6"/>
<circle cx="732" cy="168" r="1.6"/>
<circle cx="732" cy="180" r="1.6"/>
<circle cx="732" cy="192" r="1.6"/>
<circle cx="744" cy="84" r="1.6"/>
<circle cx="744" cy="96" r="1.6"/>
<circle cx="744" cy="108" r="1.6"/>
<circle cx="744" cy="120" r="1.6"/>
<circle cx="744" cy="132" r="1.6"/>
<circle cx="744" cy="144" r="1.6"/>
<circle cx="744" cy="156" r="1.6"/>
<circle cx="744" cy="168" r="1.6"/>
<circle cx="744" cy="180" r="1.6"/>
<circle cx="756" cy="72" r="1.6"/>
<circle cx="756" cy="84" r="1.6"/>
<circle cx="756" cy="96" r="1.6"/>
<circle cx="756" cy="108" r="1.6"/>
<circle cx="756" cy="120" r="1.6"/>
<circle cx="756" cy="132" r="1.6"/>
<circle cx="756" cy="144" r="1.6"/>
<circle cx="756" cy="156" r="1.6"/>
<circle cx="756" cy="168" r="1.6"/>
<circle cx="756" cy="180" r="1.6"/>
<circle cx="768" cy="72" r="1.6"/>
<circle cx="768" cy="84" r="1.6"/>
<circle cx="768" cy="96" r="1.6"/>
<circle cx="768" cy="108" r="1.6"/>
<circle cx="768" cy="120" r="1.6"/>
<circle cx="768" cy="132" r="1.6"/>
<circle cx="768" cy="144" r="1.6"/>
<circle cx="768" cy="156" r="1.6"/>
<circle cx="768" cy="168" r="1.6"/>
<circle cx="768" cy="180" r="1.6"/>
<circle cx="768" cy="192" r="1.6"/>
<circle cx="780" cy="72" r="1.6"/>
<circle cx="780" cy="84" r="1.6"/>
<circle cx="780" cy="96" r="1.6"/>
<circle cx="780" cy="108" r="1.6"/>
<circle cx="780" cy="120" r="1.6"/>
<circle cx="780" cy="132" r="1.6"/>
<circle cx="780" cy="144" r="1.6"/>
<circle cx="780" cy="156" r="1.6"/>
<circle cx="780" cy="168" r="1.6"/>
<circle cx="780" cy="180" r="1.6"/>
<circle cx="780" cy="192" r="1.6"/>
<circle cx="780" cy="204" r="1.6"/>
<circle cx="780" cy="216" r="1.6"/>
<circle cx="780" cy="240" r="1.6"/>
<circle cx="792" cy="72" r="1.6"/>
<circle cx="792" cy="84" r="1.6"/>
<circle cx="792" cy="96" r="1.6"/>
<circle cx="792" cy="108" r="1.6"/>
<circle cx="792" cy="120" r="1.6"/>
<circle cx="792" cy="132" r="1.6"/>
<circle cx="792" cy="144" r="1.6"/>
<circle cx="792" cy="156" r="1.6"/>
<circle cx="792" cy="168" r="1.6"/>
<circle cx="792" cy="180" r="1.6"/>
<circle cx="792" cy="192" r="1.6"/>
<circle cx="792" cy="204" r="1.6"/>
<circle cx="792" cy="240" r="1.6"/>
<circle cx="792" cy="252" r="1.6"/>
<circle cx="804" cy="72" r="1.6"/>
<circle cx="804" cy="84" r="1.6"/>
<circle cx="804" cy="96" r="1.6"/>
<circle cx="804" cy="108" r="1.6"/>
<circle cx="804" cy="120" r="1.6"/>
<circle cx="804" cy="132" r="1.6"/>
<circle cx="804" cy="144" r="1.6"/>
<circle cx="804" cy="156" r="1.6"/>
<circle cx="804" cy="168" r="1.6"/>
<circle cx="804" cy="180" r="1.6"/>
<circle cx="804" cy="252" r="1.6"/>
<circle cx="816" cy="72" r="1.6"/>
<circle cx="816" cy="84" r="1.6"/>
<circle cx="816" cy="96" r="1.6"/>
<circle cx="816" cy="108" r="1.6"/>
<circle cx="816" cy="120" r="1.6"/>
<circle cx="816" cy="132" r="1.6"/>
<circle cx="816" cy="144" r="1.6"/>
<circle cx="816" cy="156" r="1.6"/>
<circle cx="816" cy="168" r="1.6"/>
<circle cx="816" cy="180" r="1.6"/>
<circle cx="816" cy="252" r="1.6"/>
<circle cx="828" cy="60" r="1.6"/>
<circle cx="828" cy="72" r="1.6"/>
<circle cx="828" cy="84" r="1.6"/>
<circle cx="828" cy="96" r="1.6"/>
<circle cx="828" cy="108" r="1.6"/>
<circle cx="828" cy="120" r="1.6"/>
<circle cx="828" cy="132" r="1.6"/>
<circle cx="828" cy="144" r="1.6"/>
<circle cx="828" cy="156" r="1.6"/>
<circle cx="828" cy="168" r="1.6"/>
<circle cx="828" cy="300" r="1.6"/>
<circle cx="828" cy="312" r="1.6"/>
<circle cx="828" cy="324" r="1.6"/>
<circle cx="840" cy="60" r="1.6"/>
<circle cx="840" cy="72" r="1.6"/>
<circle cx="840" cy="84" r="1.6"/>
<circle cx="840" cy="96" r="1.6"/>
<circle cx="840" cy="108" r="1.6"/>
<circle cx="840" cy="120" r="1.6"/>
<circle cx="840" cy="132" r="1.6"/>
<circle cx="840" cy="288" r="1.6"/>
<circle cx="840" cy="300" r="1.6"/>
<circle cx="840" cy="312" r="1.6"/>
<circle cx="840" cy="324" r="1.6"/>
<circle cx="852" cy="60" r="1.6"/>
<circle cx="852" cy="72" r="1.6"/>
<circle cx="852" cy="84" r="1.6"/>
<circle cx="852" cy="96" r="1.6"/>
<circle cx="852" cy="108" r="1.6"/>
<circle cx="852" cy="120" r="1.6"/>
<circle cx="852" cy="288" r="1.6"/>
<circle cx="852" cy="300" r="1.6"/>
<circle cx="852" cy="312" r="1.6"/>
<circle cx="852" cy="324" r="1.6"/>
<circle cx="864" cy="60" r="1.6"/>
<circle cx="864" cy="72" r="1.6"/>
<circle cx="864" cy="84" r="1.6"/>
<circle cx="864" cy="96" r="1.6"/>
<circle cx="864" cy="108" r="1.6"/>
<circle cx="864" cy="120" r="1.6"/>
<circle cx="864" cy="276" r="1.6"/>
<circle cx="864" cy="288" r="1.6"/>
<circle cx="864" cy="300" r="1.6"/>
<circle cx="864" cy="312" r="1.6"/>
<circle cx="864" cy="324" r="1.6"/>
<circle cx="876" cy="60" r="1.6"/>
<circle cx="876" cy="72" r="1.6"/>
<circle cx="876" cy="84" r="1.6"/>
<circle cx="876" cy="96" r="1.6"/>
<circle cx="876" cy="108" r="1.6"/>
<circle cx="876" cy="276" r="1.6"/>
<circle cx="876" cy="288" r="1.6"/>
<circle cx="876" cy="300" r="1.6"/>
<circle cx="876" cy="312" r="1.6"/>
<circle cx="876" cy="324" r="1.6"/>
<circle cx="888" cy="60" r="1.6"/>
<circle cx="888" cy="72" r="1.6"/>
<circle cx="888" cy="84" r="1.6"/>
<circle cx="888" cy="96" r="1.6"/>
<circle cx="888" cy="276" r="1.6"/>
<circle cx="888" cy="288" r="1.6"/>
<circle cx="888" cy="300" r="1.6"/>
<circle cx="888" cy="312" r="1.6"/>
<circle cx="888" cy="324" r="1.6"/>
<circle cx="900" cy="60" r="1.6"/>
<circle cx="900" cy="72" r="1.6"/>
<circle cx="900" cy="84" r="1.6"/>
<circle cx="900" cy="288" r="1.6"/>
<circle cx="900" cy="300" r="1.6"/>
<circle cx="900" cy="312" r="1.6"/>
<circle cx="900" cy="324" r="1.6"/>
<circle cx="900" cy="336" r="1.6"/>
<circle cx="912" cy="60" r="1.6"/>
<circle cx="912" cy="72" r="1.6"/>
<circle cx="912" cy="84" r="1.6"/>
<circle cx="912" cy="300" r="1.6"/>
<circle cx="912" cy="312" r="1.6"/>
<circle cx="912" cy="324" r="1.6"/>
<circle cx="912" cy="336" r="1.6"/>
<circle cx="924" cy="60" r="1.6"/>
<circle cx="924" cy="72" r="1.6"/>
<circle cx="924" cy="84" r="1.6"/>
<circle cx="936" cy="60" r="1.6"/>
<circle cx="936" cy="72" r="1.6"/>
<circle cx="948" cy="60" r="1.6"/>
<circle cx="948" cy="72" r="1.6"/>
<circle cx="972" cy="360" r="1.6"/>
</g>
<g>
<circle cx="160.0" cy="139.2" r="9" fill="url(#markerGlow)"/>
<circle cx="171.7" cy="149.3" r="9" fill="url(#markerGlow)"/>
<circle cx="160.3" cy="113.1" r="9" fill="url(#markerGlow)"/>
<circle cx="208.3" cy="134.1" r="9" fill="url(#markerGlow)"/>
<circle cx="231.1" cy="152.5" r="9" fill="url(#markerGlow)"/>
<circle cx="256.7" cy="128.3" r="9" fill="url(#markerGlow)"/>
<circle cx="302.5" cy="126.9" r="9" fill="url(#markerGlow)"/>
<circle cx="286.1" cy="136.3" r="9" fill="url(#markerGlow)"/>
<circle cx="279.4" cy="123.5" r="9" fill="url(#markerGlow)"/>
<circle cx="158.1" cy="108.5" r="9" fill="url(#markerGlow)"/>
<circle cx="370.6" cy="302.7" r="9" fill="url(#markerGlow)"/>
<circle cx="303.6" cy="329.1" r="9" fill="url(#markerGlow)"/>
<circle cx="499.7" cy="102.7" r="9" fill="url(#markerGlow)"/>
<circle cx="482.5" cy="97.9" r="9" fill="url(#markerGlow)"/>
<circle cx="506.7" cy="109.6" r="9" fill="url(#markerGlow)"/>
<circle cx="489.7" cy="132.3" r="9" fill="url(#markerGlow)"/>
<circle cx="474.7" cy="136.8" r="9" fill="url(#markerGlow)"/>
<circle cx="513.6" cy="100.3" r="9" fill="url(#markerGlow)"/>
<circle cx="512.2" cy="104.5" r="9" fill="url(#markerGlow)"/>
<circle cx="524.2" cy="106.4" r="9" fill="url(#markerGlow)"/>
<circle cx="520.6" cy="114.9" r="9" fill="url(#markerGlow)"/>
<circle cx="525.6" cy="118.7" r="9" fill="url(#markerGlow)"/>
<circle cx="545.6" cy="111.5" r="9" fill="url(#markerGlow)"/>
<circle cx="540.0" cy="106.4" r="9" fill="url(#markerGlow)"/>
<circle cx="558.3" cy="100.8" r="9" fill="url(#markerGlow)"/>
<circle cx="535.0" cy="91.5" r="9" fill="url(#markerGlow)"/>
<circle cx="550.3" cy="81.9" r="9" fill="url(#markerGlow)"/>
<circle cx="529.7" cy="80.3" r="9" fill="url(#markerGlow)"/>
<circle cx="569.2" cy="79.5" r="9" fill="url(#markerGlow)"/>
<circle cx="580.6" cy="130.7" r="9" fill="url(#markerGlow)"/>
<circle cx="596.7" cy="154.4" r="9" fill="url(#markerGlow)"/>
<circle cx="599.7" cy="154.9" r="9" fill="url(#markerGlow)"/>
<circle cx="629.7" cy="174.1" r="9" fill="url(#markerGlow)"/>
<circle cx="633.1" cy="161.6" r="9" fill="url(#markerGlow)"/>
<circle cx="643.1" cy="172.5" r="9" fill="url(#markerGlow)"/>
<circle cx="653.6" cy="172.8" r="9" fill="url(#markerGlow)"/>
<circle cx="888.1" cy="144.8" r="9" fill="url(#markerGlow)"/>
<circle cx="852.8" cy="139.7" r="9" fill="url(#markerGlow)"/>
<circle cx="837.5" cy="173.3" r="9" fill="url(#markerGlow)"/>
<circle cx="788.3" cy="236.5" r="9" fill="url(#markerGlow)"/>
<circle cx="793.9" cy="184.0" r="9" fill="url(#markerGlow)"/>
<circle cx="623.3" cy="151.2" r="9" fill="url(#markerGlow)"/>
</g>
<g fill="#5fd0ff">
<circle cx="160.0" cy="139.2" r="2.6"/>
<circle cx="160.0" cy="139.2" r="1.2" fill="#d6f4ff"/>
<circle cx="171.7" cy="149.3" r="2.6"/>
<circle cx="171.7" cy="149.3" r="1.2" fill="#d6f4ff"/>
<circle cx="160.3" cy="113.1" r="2.6"/>
<circle cx="160.3" cy="113.1" r="1.2" fill="#d6f4ff"/>
<circle cx="208.3" cy="134.1" r="2.6"/>
<circle cx="208.3" cy="134.1" r="1.2" fill="#d6f4ff"/>
<circle cx="231.1" cy="152.5" r="2.6"/>
<circle cx="231.1" cy="152.5" r="1.2" fill="#d6f4ff"/>
<circle cx="256.7" cy="128.3" r="2.6"/>
<circle cx="256.7" cy="128.3" r="1.2" fill="#d6f4ff"/>
<circle cx="302.5" cy="126.9" r="2.6"/>
<circle cx="302.5" cy="126.9" r="1.2" fill="#d6f4ff"/>
<circle cx="286.1" cy="136.3" r="2.6"/>
<circle cx="286.1" cy="136.3" r="1.2" fill="#d6f4ff"/>
<circle cx="279.4" cy="123.5" r="2.6"/>
<circle cx="279.4" cy="123.5" r="1.2" fill="#d6f4ff"/>
<circle cx="158.1" cy="108.5" r="2.6"/>
<circle cx="158.1" cy="108.5" r="1.2" fill="#d6f4ff"/>
<circle cx="370.6" cy="302.7" r="2.6"/>
<circle cx="370.6" cy="302.7" r="1.2" fill="#d6f4ff"/>
<circle cx="303.6" cy="329.1" r="2.6"/>
<circle cx="303.6" cy="329.1" r="1.2" fill="#d6f4ff"/>
<circle cx="499.7" cy="102.7" r="2.6"/>
<circle cx="499.7" cy="102.7" r="1.2" fill="#d6f4ff"/>
<circle cx="482.5" cy="97.9" r="2.6"/>
<circle cx="482.5" cy="97.9" r="1.2" fill="#d6f4ff"/>
<circle cx="506.7" cy="109.6" r="2.6"/>
<circle cx="506.7" cy="109.6" r="1.2" fill="#d6f4ff"/>
<circle cx="489.7" cy="132.3" r="2.6"/>
<circle cx="489.7" cy="132.3" r="1.2" fill="#d6f4ff"/>
<circle cx="474.7" cy="136.8" r="2.6"/>
<circle cx="474.7" cy="136.8" r="1.2" fill="#d6f4ff"/>
<circle cx="513.6" cy="100.3" r="2.6"/>
<circle cx="513.6" cy="100.3" r="1.2" fill="#d6f4ff"/>
<circle cx="512.2" cy="104.5" r="2.6"/>
<circle cx="512.2" cy="104.5" r="1.2" fill="#d6f4ff"/>
<circle cx="524.2" cy="106.4" r="2.6"/>
<circle cx="524.2" cy="106.4" r="1.2" fill="#d6f4ff"/>
<circle cx="520.6" cy="114.9" r="2.6"/>
<circle cx="520.6" cy="114.9" r="1.2" fill="#d6f4ff"/>
<circle cx="525.6" cy="118.7" r="2.6"/>
<circle cx="525.6" cy="118.7" r="1.2" fill="#d6f4ff"/>
<circle cx="545.6" cy="111.5" r="2.6"/>
<circle cx="545.6" cy="111.5" r="1.2" fill="#d6f4ff"/>
<circle cx="540.0" cy="106.4" r="2.6"/>
<circle cx="540.0" cy="106.4" r="1.2" fill="#d6f4ff"/>
<circle cx="558.3" cy="100.8" r="2.6"/>
<circle cx="558.3" cy="100.8" r="1.2" fill="#d6f4ff"/>
<circle cx="535.0" cy="91.5" r="2.6"/>
<circle cx="535.0" cy="91.5" r="1.2" fill="#d6f4ff"/>
<circle cx="550.3" cy="81.9" r="2.6"/>
<circle cx="550.3" cy="81.9" r="1.2" fill="#d6f4ff"/>
<circle cx="529.7" cy="80.3" r="2.6"/>
<circle cx="529.7" cy="80.3" r="1.2" fill="#d6f4ff"/>
<circle cx="569.2" cy="79.5" r="2.6"/>
<circle cx="569.2" cy="79.5" r="1.2" fill="#d6f4ff"/>
<circle cx="580.6" cy="130.7" r="2.6"/>
<circle cx="580.6" cy="130.7" r="1.2" fill="#d6f4ff"/>
<circle cx="596.7" cy="154.4" r="2.6"/>
<circle cx="596.7" cy="154.4" r="1.2" fill="#d6f4ff"/>
<circle cx="599.7" cy="154.9" r="2.6"/>
<circle cx="599.7" cy="154.9" r="1.2" fill="#d6f4ff"/>
<circle cx="629.7" cy="174.1" r="2.6"/>
<circle cx="629.7" cy="174.1" r="1.2" fill="#d6f4ff"/>
<circle cx="633.1" cy="161.6" r="2.6"/>
<circle cx="633.1" cy="161.6" r="1.2" fill="#d6f4ff"/>
<circle cx="643.1" cy="172.5" r="2.6"/>
<circle cx="643.1" cy="172.5" r="1.2" fill="#d6f4ff"/>
<circle cx="653.6" cy="172.8" r="2.6"/>
<circle cx="653.6" cy="172.8" r="1.2" fill="#d6f4ff"/>
<circle cx="888.1" cy="144.8" r="2.6"/>
<circle cx="888.1" cy="144.8" r="1.2" fill="#d6f4ff"/>
<circle cx="852.8" cy="139.7" r="2.6"/>
<circle cx="852.8" cy="139.7" r="1.2" fill="#d6f4ff"/>
<circle cx="837.5" cy="173.3" r="2.6"/>
<circle cx="837.5" cy="173.3" r="1.2" fill="#d6f4ff"/>
<circle cx="788.3" cy="236.5" r="2.6"/>
<circle cx="788.3" cy="236.5" r="1.2" fill="#d6f4ff"/>
<circle cx="793.9" cy="184.0" r="2.6"/>
<circle cx="793.9" cy="184.0" r="1.2" fill="#d6f4ff"/>
<circle cx="623.3" cy="151.2" r="2.6"/>
<circle cx="623.3" cy="151.2" r="1.2" fill="#d6f4ff"/>
</g>
</svg>